G04 Layer_Color=2752767*
%FSLAX43Y43*%
%MOMM*%
G71*
G01*
G75*
%ADD45C,0.051*%
%ADD46C,0.068*%
D45*
X42747Y-42078D02*
Y-41672D01*
X43153D01*
Y-42078D01*
X42747D01*
X42797Y-9828D02*
Y-9422D01*
X43203D01*
Y-9828D01*
X42797D01*
X42113Y-32461D02*
X41910Y-32055D01*
X42316D01*
X42113Y-32461D01*
X11481Y-32639D02*
X11278Y-32233D01*
X11684D01*
X11481Y-32639D01*
D46*
X13411Y-16561D02*
G03*
X13411Y-16561I-203J0D01*
G01*
X38125Y-42977D02*
G03*
X38125Y-42977I-203J0D01*
G01*
X35585D02*
G03*
X35585Y-42977I-203J0D01*
G01*
X37950Y-8890D02*
G03*
X37950Y-8890I-203J0D01*
G01*
Y-11430D02*
G03*
X37950Y-11430I-203J0D01*
G01*
X35410Y-8890D02*
G03*
X35410Y-8890I-203J0D01*
G01*
Y-11430D02*
G03*
X35410Y-11430I-203J0D01*
G01*
X32870Y-8890D02*
G03*
X32870Y-8890I-203J0D01*
G01*
Y-11430D02*
G03*
X32870Y-11430I-203J0D01*
G01*
X30330Y-8890D02*
G03*
X30330Y-8890I-203J0D01*
G01*
Y-11430D02*
G03*
X30330Y-11430I-203J0D01*
G01*
X27790Y-8890D02*
G03*
X27790Y-8890I-203J0D01*
G01*
Y-11430D02*
G03*
X27790Y-11430I-203J0D01*
G01*
X25250Y-8890D02*
G03*
X25250Y-8890I-203J0D01*
G01*
Y-11430D02*
G03*
X25250Y-11430I-203J0D01*
G01*
X22710Y-8890D02*
G03*
X22710Y-8890I-203J0D01*
G01*
Y-11430D02*
G03*
X22710Y-11430I-203J0D01*
G01*
X20170Y-8890D02*
G03*
X20170Y-8890I-203J0D01*
G01*
Y-11430D02*
G03*
X20170Y-11430I-203J0D01*
G01*
X14385Y-41503D02*
G03*
X14385Y-41503I-203J0D01*
G01*
X22005D02*
G03*
X22005Y-41503I-203J0D01*
G01*
M02*
