G04 Layer_Physical_Order=2*
G04 Layer_Color=16711680*
%FSLAX43Y43*%
%MOMM*%
G71*
G01*
G75*
%ADD40C,5.200*%
%ADD41C,2.000*%
%ADD42C,2.200*%
G36*
X46542Y-45517D02*
X12802D01*
X12460Y-44907D01*
X11508Y-43037D01*
X10705Y-41226D01*
X9993Y-39378D01*
X9371Y-37497D01*
X8843Y-35588D01*
X8409Y-33655D01*
X8103Y-31893D01*
X8128Y-19526D01*
X8409Y-17907D01*
X8843Y-15974D01*
X9371Y-14065D01*
X9993Y-12184D01*
X10705Y-10336D01*
X11508Y-8525D01*
X12460Y-6655D01*
X12802Y-6045D01*
X46542Y-6045D01*
Y-45517D01*
D02*
G37*
%LPC*%
G36*
X11231Y-32686D02*
X9898D01*
X9904Y-32749D01*
X9995Y-33051D01*
X10144Y-33329D01*
X10344Y-33573D01*
X10588Y-33773D01*
X10866Y-33921D01*
X11167Y-34013D01*
X11231Y-34019D01*
Y-32686D01*
D02*
G37*
G36*
X43200Y-39789D02*
Y-41625D01*
X45036D01*
X45020Y-41463D01*
X44900Y-41067D01*
X44705Y-40703D01*
X44442Y-40383D01*
X44122Y-40120D01*
X43758Y-39925D01*
X43362Y-39805D01*
X43200Y-39789D01*
D02*
G37*
G36*
X42700D02*
X42538Y-39805D01*
X42142Y-39925D01*
X41778Y-40120D01*
X41458Y-40383D01*
X41195Y-40703D01*
X41000Y-41067D01*
X40880Y-41463D01*
X40864Y-41625D01*
X42700D01*
Y-39789D01*
D02*
G37*
G36*
X43696Y-32508D02*
X42363D01*
Y-33841D01*
X42427Y-33835D01*
X42728Y-33743D01*
X43006Y-33595D01*
X43250Y-33395D01*
X43450Y-33151D01*
X43599Y-32873D01*
X43690Y-32572D01*
X43696Y-32508D01*
D02*
G37*
G36*
X41863D02*
X40530D01*
X40536Y-32572D01*
X40628Y-32873D01*
X40776Y-33151D01*
X40976Y-33395D01*
X41220Y-33595D01*
X41498Y-33743D01*
X41800Y-33835D01*
X41863Y-33841D01*
Y-32508D01*
D02*
G37*
G36*
X13064Y-32686D02*
X11731D01*
Y-34019D01*
X11794Y-34013D01*
X12096Y-33921D01*
X12374Y-33773D01*
X12618Y-33573D01*
X12818Y-33329D01*
X12966Y-33051D01*
X13058Y-32749D01*
X13064Y-32686D01*
D02*
G37*
G36*
X38172Y-41494D02*
Y-42727D01*
X39405D01*
X39401Y-42683D01*
X39315Y-42400D01*
X39175Y-42139D01*
X38988Y-41911D01*
X38760Y-41724D01*
X38499Y-41584D01*
X38216Y-41499D01*
X38172Y-41494D01*
D02*
G37*
G36*
X42700Y-42125D02*
X40864D01*
X40880Y-42287D01*
X41000Y-42683D01*
X41195Y-43047D01*
X41458Y-43367D01*
X41778Y-43630D01*
X42142Y-43825D01*
X42538Y-43945D01*
X42700Y-43961D01*
Y-42125D01*
D02*
G37*
G36*
X39405Y-43227D02*
X38172D01*
Y-44459D01*
X38216Y-44455D01*
X38499Y-44369D01*
X38760Y-44230D01*
X38988Y-44043D01*
X39175Y-43814D01*
X39315Y-43554D01*
X39401Y-43271D01*
X39405Y-43227D01*
D02*
G37*
G36*
X35382Y-41470D02*
X35088Y-41499D01*
X34805Y-41584D01*
X34545Y-41724D01*
X34316Y-41911D01*
X34129Y-42139D01*
X33990Y-42400D01*
X33904Y-42683D01*
X33875Y-42977D01*
X33904Y-43271D01*
X33990Y-43554D01*
X34129Y-43814D01*
X34316Y-44043D01*
X34545Y-44230D01*
X34805Y-44369D01*
X35088Y-44455D01*
X35382Y-44484D01*
X35676Y-44455D01*
X35959Y-44369D01*
X36220Y-44230D01*
X36448Y-44043D01*
X36856D01*
X37085Y-44230D01*
X37345Y-44369D01*
X37628Y-44455D01*
X37672Y-44459D01*
Y-42977D01*
Y-41494D01*
X37628Y-41499D01*
X37345Y-41584D01*
X37085Y-41724D01*
X36856Y-41911D01*
X36448D01*
X36220Y-41724D01*
X35959Y-41584D01*
X35676Y-41499D01*
X35382Y-41470D01*
D02*
G37*
G36*
X21802Y-39996D02*
X21508Y-40025D01*
X21225Y-40111D01*
X20965Y-40250D01*
X20736Y-40437D01*
X20549Y-40666D01*
X20409Y-40926D01*
X20324Y-41209D01*
X20295Y-41503D01*
X20324Y-41797D01*
X20409Y-42080D01*
X20549Y-42341D01*
X20736Y-42569D01*
X20965Y-42756D01*
X21225Y-42896D01*
X21508Y-42981D01*
X21802Y-43010D01*
X22096Y-42981D01*
X22379Y-42896D01*
X22639Y-42756D01*
X22868Y-42569D01*
X23055Y-42341D01*
X23195Y-42080D01*
X23280Y-41797D01*
X23309Y-41503D01*
X23280Y-41209D01*
X23195Y-40926D01*
X23055Y-40666D01*
X22868Y-40437D01*
X22639Y-40250D01*
X22379Y-40111D01*
X22096Y-40025D01*
X21802Y-39996D01*
D02*
G37*
G36*
X14182D02*
X13888Y-40025D01*
X13605Y-40111D01*
X13345Y-40250D01*
X13116Y-40437D01*
X12929Y-40666D01*
X12789Y-40926D01*
X12704Y-41209D01*
X12675Y-41503D01*
X12704Y-41797D01*
X12789Y-42080D01*
X12929Y-42341D01*
X13116Y-42569D01*
X13345Y-42756D01*
X13605Y-42896D01*
X13888Y-42981D01*
X14182Y-43010D01*
X14476Y-42981D01*
X14759Y-42896D01*
X15019Y-42756D01*
X15248Y-42569D01*
X15435Y-42341D01*
X15575Y-42080D01*
X15660Y-41797D01*
X15689Y-41503D01*
X15660Y-41209D01*
X15575Y-40926D01*
X15435Y-40666D01*
X15248Y-40437D01*
X15019Y-40250D01*
X14759Y-40111D01*
X14476Y-40025D01*
X14182Y-39996D01*
D02*
G37*
G36*
X45036Y-42125D02*
X43200D01*
Y-43961D01*
X43362Y-43945D01*
X43758Y-43825D01*
X44122Y-43630D01*
X44442Y-43367D01*
X44705Y-43047D01*
X44900Y-42683D01*
X45020Y-42287D01*
X45036Y-42125D01*
D02*
G37*
G36*
X42750Y-9875D02*
X40914D01*
X40930Y-10037D01*
X41050Y-10433D01*
X41245Y-10797D01*
X41508Y-11117D01*
X41828Y-11380D01*
X42192Y-11575D01*
X42588Y-11695D01*
X42750Y-11711D01*
Y-9875D01*
D02*
G37*
G36*
X13458Y-15078D02*
Y-16311D01*
X14691D01*
X14686Y-16267D01*
X14601Y-15984D01*
X14461Y-15723D01*
X14274Y-15495D01*
X14045Y-15308D01*
X13785Y-15168D01*
X13502Y-15083D01*
X13458Y-15078D01*
D02*
G37*
G36*
X12958D02*
X12914Y-15083D01*
X12631Y-15168D01*
X12371Y-15308D01*
X12142Y-15495D01*
X11955Y-15723D01*
X11815Y-15984D01*
X11730Y-16267D01*
X11725Y-16311D01*
X12958D01*
Y-15078D01*
D02*
G37*
G36*
X45086Y-9875D02*
X43250D01*
Y-11711D01*
X43412Y-11695D01*
X43808Y-11575D01*
X44172Y-11380D01*
X44492Y-11117D01*
X44755Y-10797D01*
X44950Y-10433D01*
X45070Y-10037D01*
X45086Y-9875D01*
D02*
G37*
G36*
X37747Y-7382D02*
X37453Y-7411D01*
X37170Y-7497D01*
X36909Y-7636D01*
X36681Y-7824D01*
X36272D01*
X36044Y-7636D01*
X35783Y-7497D01*
X35501Y-7411D01*
X35207Y-7382D01*
X34913Y-7411D01*
X34630Y-7497D01*
X34369Y-7636D01*
X34141Y-7824D01*
X33732D01*
X33504Y-7636D01*
X33243Y-7497D01*
X32961Y-7411D01*
X32667Y-7382D01*
X32373Y-7411D01*
X32090Y-7497D01*
X31829Y-7636D01*
X31601Y-7824D01*
X31192D01*
X30964Y-7636D01*
X30703Y-7497D01*
X30421Y-7411D01*
X30127Y-7382D01*
X29833Y-7411D01*
X29550Y-7497D01*
X29289Y-7636D01*
X29061Y-7824D01*
X28652D01*
X28424Y-7636D01*
X28163Y-7497D01*
X27881Y-7411D01*
X27587Y-7382D01*
X27293Y-7411D01*
X27010Y-7497D01*
X26749Y-7636D01*
X26521Y-7824D01*
X26112D01*
X25884Y-7636D01*
X25623Y-7497D01*
X25341Y-7411D01*
X25047Y-7382D01*
X24753Y-7411D01*
X24470Y-7497D01*
X24209Y-7636D01*
X23981Y-7824D01*
X23572D01*
X23344Y-7636D01*
X23083Y-7497D01*
X22801Y-7411D01*
X22507Y-7382D01*
X22213Y-7411D01*
X21930Y-7497D01*
X21669Y-7636D01*
X21441Y-7824D01*
X21032D01*
X20804Y-7636D01*
X20543Y-7497D01*
X20261Y-7411D01*
X19967Y-7382D01*
X19673Y-7411D01*
X19390Y-7497D01*
X19129Y-7636D01*
X18901Y-7824D01*
X18713Y-8052D01*
X18574Y-8313D01*
X18488Y-8596D01*
X18459Y-8890D01*
X18488Y-9184D01*
X18574Y-9466D01*
X18713Y-9727D01*
X18901Y-9955D01*
Y-10364D01*
X18713Y-10592D01*
X18574Y-10853D01*
X18488Y-11136D01*
X18459Y-11430D01*
X18488Y-11724D01*
X18574Y-12006D01*
X18713Y-12267D01*
X18901Y-12495D01*
X19129Y-12683D01*
X19390Y-12822D01*
X19673Y-12908D01*
X19967Y-12937D01*
X20261Y-12908D01*
X20543Y-12822D01*
X20804Y-12683D01*
X21032Y-12495D01*
X21441D01*
X21669Y-12683D01*
X21930Y-12822D01*
X22213Y-12908D01*
X22507Y-12937D01*
X22801Y-12908D01*
X23083Y-12822D01*
X23344Y-12683D01*
X23572Y-12495D01*
X23981D01*
X24209Y-12683D01*
X24470Y-12822D01*
X24753Y-12908D01*
X25047Y-12937D01*
X25341Y-12908D01*
X25623Y-12822D01*
X25884Y-12683D01*
X26112Y-12495D01*
X26521D01*
X26749Y-12683D01*
X27010Y-12822D01*
X27293Y-12908D01*
X27587Y-12937D01*
X27881Y-12908D01*
X28163Y-12822D01*
X28424Y-12683D01*
X28652Y-12495D01*
X29061D01*
X29289Y-12683D01*
X29550Y-12822D01*
X29833Y-12908D01*
X30127Y-12937D01*
X30421Y-12908D01*
X30703Y-12822D01*
X30964Y-12683D01*
X31192Y-12495D01*
X31601D01*
X31829Y-12683D01*
X32090Y-12822D01*
X32373Y-12908D01*
X32667Y-12937D01*
X32961Y-12908D01*
X33243Y-12822D01*
X33504Y-12683D01*
X33732Y-12495D01*
X34141D01*
X34369Y-12683D01*
X34630Y-12822D01*
X34913Y-12908D01*
X35207Y-12937D01*
X35501Y-12908D01*
X35783Y-12822D01*
X36044Y-12683D01*
X36272Y-12495D01*
X36681D01*
X36909Y-12683D01*
X37170Y-12822D01*
X37453Y-12908D01*
X37747Y-12937D01*
X38041Y-12908D01*
X38323Y-12822D01*
X38584Y-12683D01*
X38812Y-12495D01*
X39000Y-12267D01*
X39139Y-12006D01*
X39225Y-11724D01*
X39254Y-11430D01*
X39225Y-11136D01*
X39139Y-10853D01*
X39000Y-10592D01*
X38812Y-10364D01*
Y-9955D01*
X39000Y-9727D01*
X39139Y-9466D01*
X39225Y-9184D01*
X39254Y-8890D01*
X39225Y-8596D01*
X39139Y-8313D01*
X39000Y-8052D01*
X38812Y-7824D01*
X38584Y-7636D01*
X38323Y-7497D01*
X38041Y-7411D01*
X37747Y-7382D01*
D02*
G37*
G36*
X43250Y-7539D02*
Y-9375D01*
X45086D01*
X45070Y-9213D01*
X44950Y-8817D01*
X44755Y-8453D01*
X44492Y-8133D01*
X44172Y-7870D01*
X43808Y-7675D01*
X43412Y-7555D01*
X43250Y-7539D01*
D02*
G37*
G36*
X42750D02*
X42588Y-7555D01*
X42192Y-7675D01*
X41828Y-7870D01*
X41508Y-8133D01*
X41245Y-8453D01*
X41050Y-8817D01*
X40930Y-9213D01*
X40914Y-9375D01*
X42750D01*
Y-7539D01*
D02*
G37*
G36*
X41863Y-30675D02*
X41800Y-30681D01*
X41498Y-30773D01*
X41220Y-30921D01*
X40976Y-31121D01*
X40776Y-31365D01*
X40628Y-31643D01*
X40536Y-31944D01*
X40530Y-32008D01*
X41863D01*
Y-30675D01*
D02*
G37*
G36*
X11731Y-30853D02*
Y-32186D01*
X13064D01*
X13058Y-32122D01*
X12966Y-31821D01*
X12818Y-31543D01*
X12618Y-31299D01*
X12374Y-31099D01*
X12096Y-30950D01*
X11794Y-30859D01*
X11731Y-30853D01*
D02*
G37*
G36*
X11231D02*
X11167Y-30859D01*
X10866Y-30950D01*
X10588Y-31099D01*
X10344Y-31299D01*
X10144Y-31543D01*
X9995Y-31821D01*
X9904Y-32122D01*
X9898Y-32186D01*
X11231D01*
Y-30853D01*
D02*
G37*
G36*
X42363Y-30675D02*
Y-32008D01*
X43696D01*
X43690Y-31944D01*
X43599Y-31643D01*
X43450Y-31365D01*
X43250Y-31121D01*
X43006Y-30921D01*
X42728Y-30773D01*
X42427Y-30681D01*
X42363Y-30675D01*
D02*
G37*
G36*
X14691Y-16811D02*
X13458D01*
Y-18043D01*
X13502Y-18039D01*
X13785Y-17953D01*
X14045Y-17814D01*
X14274Y-17627D01*
X14461Y-17398D01*
X14601Y-17138D01*
X14686Y-16855D01*
X14691Y-16811D01*
D02*
G37*
G36*
X12958D02*
X11725D01*
X11730Y-16855D01*
X11815Y-17138D01*
X11955Y-17398D01*
X12142Y-17627D01*
X12371Y-17814D01*
X12631Y-17953D01*
X12914Y-18039D01*
X12958Y-18043D01*
Y-16811D01*
D02*
G37*
G36*
X37515Y-20218D02*
X17170D01*
Y-31953D01*
X37515D01*
Y-20218D01*
D02*
G37*
%LPD*%
G36*
X25864Y-30157D02*
X25893Y-30163D01*
X25920Y-30172D01*
X25943Y-30181D01*
X25961Y-30192D01*
X25972Y-30201D01*
X25981Y-30207D01*
X25984Y-30210D01*
X26005Y-30233D01*
X26019Y-30257D01*
X26028Y-30280D01*
X26034Y-30307D01*
X26040Y-30327D01*
X26043Y-30345D01*
Y-30356D01*
Y-30359D01*
X26040Y-30392D01*
X26034Y-30421D01*
X26025Y-30447D01*
X26013Y-30468D01*
X26002Y-30485D01*
X25993Y-30497D01*
X25987Y-30506D01*
X25984Y-30509D01*
X25961Y-30526D01*
X25934Y-30541D01*
X25908Y-30550D01*
X25885Y-30558D01*
X25861Y-30561D01*
X25844Y-30564D01*
X25829D01*
X25794Y-30561D01*
X25762Y-30556D01*
X25735Y-30547D01*
X25712Y-30535D01*
X25694Y-30526D01*
X25683Y-30517D01*
X25674Y-30512D01*
X25671Y-30509D01*
X25650Y-30485D01*
X25636Y-30462D01*
X25624Y-30435D01*
X25618Y-30412D01*
X25612Y-30392D01*
X25609Y-30374D01*
Y-30362D01*
Y-30359D01*
X25612Y-30327D01*
X25618Y-30295D01*
X25630Y-30271D01*
X25639Y-30248D01*
X25650Y-30233D01*
X25662Y-30219D01*
X25668Y-30213D01*
X25671Y-30210D01*
X25694Y-30192D01*
X25721Y-30178D01*
X25747Y-30169D01*
X25770Y-30160D01*
X25794Y-30157D01*
X25811Y-30154D01*
X25829D01*
X25864Y-30157D01*
D02*
G37*
G36*
X36271Y-25471D02*
X36066D01*
Y-26938D01*
X36034Y-26956D01*
X35999Y-26973D01*
X35964Y-26991D01*
X35929Y-27006D01*
X35899Y-27017D01*
X35873Y-27026D01*
X35855Y-27032D01*
X35852Y-27035D01*
X35849D01*
X35794Y-27049D01*
X35735Y-27061D01*
X35677Y-27070D01*
X35621Y-27076D01*
X35574Y-27079D01*
X35554D01*
X35536Y-27082D01*
X35501D01*
X35437Y-27079D01*
X35378Y-27073D01*
X35322Y-27067D01*
X35275Y-27058D01*
X35237Y-27049D01*
X35208Y-27041D01*
X35199Y-27038D01*
X35191D01*
X35188Y-27035D01*
X35185D01*
X35135Y-27014D01*
X35088Y-26994D01*
X35047Y-26970D01*
X35012Y-26947D01*
X34986Y-26929D01*
X34965Y-26912D01*
X34950Y-26900D01*
X34947Y-26897D01*
X34912Y-26859D01*
X34880Y-26821D01*
X34857Y-26783D01*
X34833Y-26745D01*
X34816Y-26716D01*
X34804Y-26689D01*
X34798Y-26672D01*
X34795Y-26669D01*
Y-26666D01*
X34778Y-26613D01*
X34763Y-26557D01*
X34754Y-26502D01*
X34745Y-26452D01*
X34742Y-26411D01*
X34740Y-26376D01*
Y-26364D01*
Y-26355D01*
Y-26350D01*
Y-26347D01*
X34742Y-26285D01*
X34745Y-26229D01*
X34754Y-26177D01*
X34766Y-26127D01*
X34778Y-26083D01*
X34789Y-26042D01*
X34804Y-26004D01*
X34819Y-25972D01*
X34836Y-25942D01*
X34851Y-25916D01*
X34863Y-25896D01*
X34874Y-25878D01*
X34886Y-25863D01*
X34895Y-25855D01*
X34898Y-25849D01*
X34901Y-25846D01*
X34930Y-25816D01*
X34965Y-25790D01*
X34997Y-25770D01*
X35032Y-25749D01*
X35068Y-25732D01*
X35103Y-25720D01*
X35170Y-25699D01*
X35202Y-25694D01*
X35232Y-25688D01*
X35255Y-25685D01*
X35278Y-25682D01*
X35296Y-25679D01*
X35322D01*
X35372Y-25682D01*
X35419Y-25685D01*
X35460Y-25691D01*
X35492Y-25696D01*
X35521Y-25705D01*
X35542Y-25711D01*
X35554Y-25714D01*
X35560Y-25717D01*
X35592Y-25732D01*
X35621Y-25749D01*
X35647Y-25767D01*
X35668Y-25781D01*
X35685Y-25796D01*
X35697Y-25808D01*
X35706Y-25816D01*
X35709Y-25819D01*
X35718D01*
Y-25175D01*
X36271D01*
Y-25471D01*
D02*
G37*
G36*
X24803Y-25641D02*
X24645Y-25855D01*
X24290Y-25585D01*
Y-26754D01*
X24700D01*
Y-27049D01*
X23558D01*
Y-26754D01*
X23959D01*
Y-25175D01*
X24197D01*
X24803Y-25641D01*
D02*
G37*
G36*
X30688Y-30157D02*
X30717Y-30163D01*
X30743Y-30172D01*
X30767Y-30181D01*
X30784Y-30192D01*
X30796Y-30201D01*
X30805Y-30207D01*
X30808Y-30210D01*
X30828Y-30233D01*
X30843Y-30257D01*
X30852Y-30280D01*
X30857Y-30307D01*
X30863Y-30327D01*
X30866Y-30345D01*
Y-30356D01*
Y-30359D01*
X30863Y-30392D01*
X30857Y-30421D01*
X30849Y-30447D01*
X30837Y-30468D01*
X30825Y-30485D01*
X30816Y-30497D01*
X30811Y-30506D01*
X30808Y-30509D01*
X30784Y-30526D01*
X30758Y-30541D01*
X30731Y-30550D01*
X30708Y-30558D01*
X30685Y-30561D01*
X30667Y-30564D01*
X30652D01*
X30617Y-30561D01*
X30585Y-30556D01*
X30559Y-30547D01*
X30535Y-30535D01*
X30518Y-30526D01*
X30506Y-30517D01*
X30497Y-30512D01*
X30494Y-30509D01*
X30474Y-30485D01*
X30459Y-30462D01*
X30447Y-30435D01*
X30442Y-30412D01*
X30436Y-30392D01*
X30433Y-30374D01*
Y-30362D01*
Y-30359D01*
X30436Y-30327D01*
X30442Y-30295D01*
X30453Y-30271D01*
X30462Y-30248D01*
X30474Y-30233D01*
X30485Y-30219D01*
X30491Y-30213D01*
X30494Y-30210D01*
X30518Y-30192D01*
X30544Y-30178D01*
X30570Y-30169D01*
X30594Y-30160D01*
X30617Y-30157D01*
X30635Y-30154D01*
X30652D01*
X30688Y-30157D01*
D02*
G37*
G36*
X32413Y-30535D02*
X32041D01*
X31528Y-29197D01*
X31903D01*
X32205Y-30131D01*
X32222D01*
X32582Y-29197D01*
X32987D01*
X32413Y-30535D01*
D02*
G37*
G36*
X33868Y-29162D02*
X33921Y-29164D01*
X33971Y-29173D01*
X34012Y-29182D01*
X34047Y-29191D01*
X34073Y-29197D01*
X34091Y-29202D01*
X34094Y-29205D01*
X34096D01*
X34143Y-29223D01*
X34187Y-29243D01*
X34225Y-29267D01*
X34258Y-29287D01*
X34287Y-29308D01*
X34307Y-29323D01*
X34319Y-29334D01*
X34325Y-29337D01*
X34360Y-29372D01*
X34389Y-29407D01*
X34416Y-29446D01*
X34436Y-29481D01*
X34454Y-29513D01*
X34465Y-29536D01*
X34474Y-29554D01*
X34477Y-29557D01*
Y-29560D01*
X34495Y-29610D01*
X34509Y-29662D01*
X34518Y-29715D01*
X34527Y-29762D01*
X34530Y-29806D01*
X34533Y-29838D01*
Y-29850D01*
Y-29859D01*
Y-29864D01*
Y-29867D01*
X34530Y-29929D01*
X34524Y-29984D01*
X34518Y-30034D01*
X34509Y-30078D01*
X34501Y-30113D01*
X34492Y-30140D01*
X34489Y-30157D01*
X34486Y-30160D01*
Y-30163D01*
X34465Y-30210D01*
X34442Y-30251D01*
X34419Y-30289D01*
X34395Y-30321D01*
X34375Y-30351D01*
X34357Y-30368D01*
X34345Y-30383D01*
X34342Y-30386D01*
X34304Y-30418D01*
X34266Y-30447D01*
X34228Y-30471D01*
X34193Y-30491D01*
X34161Y-30506D01*
X34137Y-30517D01*
X34120Y-30523D01*
X34114Y-30526D01*
X34061Y-30541D01*
X34009Y-30553D01*
X33959Y-30561D01*
X33909Y-30567D01*
X33868Y-30570D01*
X33836Y-30573D01*
X33807D01*
X33736Y-30570D01*
X33704Y-30567D01*
X33675Y-30564D01*
X33651Y-30561D01*
X33634Y-30558D01*
X33622Y-30556D01*
X33619D01*
X33558Y-30544D01*
X33528Y-30535D01*
X33505Y-30529D01*
X33484Y-30523D01*
X33470Y-30517D01*
X33461Y-30515D01*
X33458D01*
X33408Y-30494D01*
X33385Y-30485D01*
X33367Y-30476D01*
X33350Y-30471D01*
X33338Y-30465D01*
X33332Y-30459D01*
X33329D01*
X33291Y-30435D01*
X33262Y-30415D01*
X33253Y-30406D01*
X33244Y-30400D01*
X33241Y-30394D01*
X33238D01*
X33356Y-30169D01*
X33382Y-30187D01*
X33408Y-30204D01*
X33438Y-30222D01*
X33464Y-30233D01*
X33487Y-30245D01*
X33505Y-30254D01*
X33517Y-30257D01*
X33522Y-30260D01*
X33563Y-30271D01*
X33607Y-30280D01*
X33651Y-30286D01*
X33692Y-30289D01*
X33730Y-30292D01*
X33760Y-30295D01*
X33786D01*
X33842Y-30292D01*
X33868Y-30289D01*
X33891Y-30286D01*
X33909D01*
X33924Y-30283D01*
X33932Y-30280D01*
X33935D01*
X33985Y-30263D01*
X34006Y-30254D01*
X34023Y-30245D01*
X34041Y-30236D01*
X34053Y-30230D01*
X34058Y-30228D01*
X34061Y-30225D01*
X34099Y-30192D01*
X34129Y-30163D01*
X34137Y-30148D01*
X34146Y-30137D01*
X34149Y-30131D01*
X34152Y-30128D01*
X34164Y-30105D01*
X34170Y-30081D01*
X34181Y-30031D01*
Y-30014D01*
X34184Y-29996D01*
Y-29984D01*
Y-29982D01*
X33224D01*
X33215Y-29932D01*
X33206Y-29888D01*
X33200Y-29844D01*
X33197Y-29809D01*
X33194Y-29777D01*
Y-29753D01*
Y-29738D01*
Y-29733D01*
X33197Y-29674D01*
X33203Y-29618D01*
X33212Y-29572D01*
X33224Y-29533D01*
X33235Y-29501D01*
X33244Y-29478D01*
X33250Y-29463D01*
X33253Y-29457D01*
X33276Y-29416D01*
X33300Y-29384D01*
X33326Y-29352D01*
X33350Y-29328D01*
X33370Y-29308D01*
X33388Y-29293D01*
X33399Y-29285D01*
X33402Y-29282D01*
X33438Y-29258D01*
X33473Y-29238D01*
X33505Y-29223D01*
X33537Y-29208D01*
X33563Y-29200D01*
X33584Y-29194D01*
X33596Y-29188D01*
X33602D01*
X33681Y-29170D01*
X33716Y-29164D01*
X33748Y-29162D01*
X33774Y-29159D01*
X33812D01*
X33868Y-29162D01*
D02*
G37*
G36*
X35168Y-29170D02*
X35212Y-29176D01*
X35250Y-29188D01*
X35283Y-29197D01*
X35309Y-29208D01*
X35329Y-29220D01*
X35341Y-29226D01*
X35347Y-29229D01*
X35382Y-29252D01*
X35414Y-29276D01*
X35444Y-29302D01*
X35470Y-29323D01*
X35490Y-29343D01*
X35505Y-29361D01*
X35517Y-29372D01*
X35520Y-29375D01*
X35529D01*
X35570Y-29197D01*
X36170D01*
Y-29492D01*
X35839D01*
Y-30239D01*
X36170D01*
Y-30535D01*
X34911D01*
Y-30239D01*
X35490D01*
Y-29674D01*
X35455Y-29624D01*
X35438Y-29604D01*
X35420Y-29586D01*
X35406Y-29572D01*
X35394Y-29560D01*
X35385Y-29554D01*
X35382Y-29551D01*
X35356Y-29533D01*
X35326Y-29519D01*
X35297Y-29510D01*
X35271Y-29501D01*
X35247Y-29498D01*
X35227Y-29495D01*
X35209D01*
X35189Y-29498D01*
X35168Y-29501D01*
X35154Y-29510D01*
X35142Y-29519D01*
X35124Y-29533D01*
X35119Y-29539D01*
Y-29542D01*
X35110Y-29560D01*
X35101Y-29583D01*
X35092Y-29627D01*
X35089Y-29648D01*
Y-29665D01*
Y-29677D01*
Y-29680D01*
X34776D01*
Y-29630D01*
X34779Y-29583D01*
X34785Y-29542D01*
X34791Y-29501D01*
X34796Y-29466D01*
X34805Y-29434D01*
X34814Y-29405D01*
X34823Y-29381D01*
X34832Y-29358D01*
X34840Y-29340D01*
X34849Y-29323D01*
X34855Y-29311D01*
X34861Y-29299D01*
X34867Y-29293D01*
X34870Y-29287D01*
X34908Y-29246D01*
X34949Y-29217D01*
X34990Y-29197D01*
X35031Y-29182D01*
X35066Y-29173D01*
X35095Y-29170D01*
X35107Y-29167D01*
X35121D01*
X35168Y-29170D01*
D02*
G37*
G36*
X19423Y-25140D02*
X19473Y-25146D01*
X19519Y-25152D01*
X19558Y-25160D01*
X19590Y-25172D01*
X19616Y-25178D01*
X19631Y-25184D01*
X19637Y-25187D01*
X19681Y-25204D01*
X19719Y-25228D01*
X19754Y-25248D01*
X19783Y-25269D01*
X19809Y-25286D01*
X19827Y-25301D01*
X19839Y-25313D01*
X19842Y-25316D01*
X19871Y-25348D01*
X19897Y-25380D01*
X19918Y-25412D01*
X19935Y-25445D01*
X19950Y-25471D01*
X19962Y-25491D01*
X19968Y-25506D01*
X19971Y-25512D01*
X19985Y-25556D01*
X19997Y-25600D01*
X20006Y-25641D01*
X20011Y-25682D01*
X20014Y-25714D01*
X20017Y-25740D01*
Y-25758D01*
Y-25761D01*
Y-25764D01*
X20014Y-25816D01*
X20009Y-25863D01*
X20000Y-25907D01*
X19991Y-25942D01*
X19982Y-25975D01*
X19973Y-25995D01*
X19968Y-26010D01*
X19965Y-26016D01*
X19944Y-26054D01*
X19921Y-26089D01*
X19897Y-26121D01*
X19877Y-26147D01*
X19856Y-26168D01*
X19842Y-26183D01*
X19830Y-26194D01*
X19827Y-26197D01*
X19795Y-26224D01*
X19763Y-26244D01*
X19730Y-26265D01*
X19701Y-26279D01*
X19678Y-26291D01*
X19657Y-26300D01*
X19645Y-26303D01*
X19640Y-26306D01*
X19601Y-26317D01*
X19563Y-26323D01*
X19528Y-26329D01*
X19496Y-26335D01*
X19470D01*
X19449Y-26338D01*
X19426D01*
X19382Y-26335D01*
X19341Y-26332D01*
X19306Y-26326D01*
X19273Y-26320D01*
X19250Y-26314D01*
X19230Y-26311D01*
X19218Y-26306D01*
X19215D01*
X19183Y-26291D01*
X19153Y-26276D01*
X19130Y-26262D01*
X19109Y-26247D01*
X19092Y-26235D01*
X19080Y-26224D01*
X19071Y-26218D01*
X19068Y-26215D01*
X19077Y-26259D01*
X19086Y-26297D01*
X19101Y-26335D01*
X19112Y-26367D01*
X19124Y-26393D01*
X19133Y-26414D01*
X19139Y-26426D01*
X19142Y-26432D01*
X19165Y-26467D01*
X19189Y-26502D01*
X19212Y-26531D01*
X19235Y-26557D01*
X19256Y-26581D01*
X19273Y-26596D01*
X19285Y-26607D01*
X19288Y-26610D01*
X19323Y-26639D01*
X19358Y-26666D01*
X19394Y-26686D01*
X19426Y-26707D01*
X19452Y-26724D01*
X19476Y-26736D01*
X19490Y-26742D01*
X19496Y-26745D01*
X19540Y-26762D01*
X19587Y-26777D01*
X19631Y-26789D01*
X19672Y-26801D01*
X19707Y-26806D01*
X19736Y-26812D01*
X19754Y-26815D01*
X19760D01*
X19686Y-27088D01*
X19613Y-27076D01*
X19546Y-27061D01*
X19481Y-27044D01*
X19426Y-27026D01*
X19379Y-27011D01*
X19358Y-27003D01*
X19344Y-26997D01*
X19329Y-26994D01*
X19320Y-26988D01*
X19314Y-26985D01*
X19312D01*
X19247Y-26953D01*
X19189Y-26915D01*
X19133Y-26877D01*
X19089Y-26842D01*
X19051Y-26809D01*
X19022Y-26780D01*
X19004Y-26762D01*
X19001Y-26760D01*
X18998Y-26757D01*
X18948Y-26698D01*
X18907Y-26634D01*
X18869Y-26572D01*
X18837Y-26514D01*
X18814Y-26461D01*
X18805Y-26437D01*
X18796Y-26420D01*
X18790Y-26402D01*
X18784Y-26391D01*
X18781Y-26385D01*
Y-26382D01*
X18755Y-26294D01*
X18735Y-26203D01*
X18720Y-26112D01*
X18708Y-26030D01*
X18705Y-25992D01*
X18702Y-25957D01*
Y-25925D01*
X18699Y-25899D01*
Y-25875D01*
Y-25860D01*
Y-25849D01*
Y-25846D01*
X18702Y-25784D01*
X18708Y-25726D01*
X18714Y-25673D01*
X18723Y-25629D01*
X18735Y-25591D01*
X18740Y-25565D01*
X18746Y-25547D01*
X18749Y-25541D01*
X18770Y-25494D01*
X18790Y-25450D01*
X18814Y-25412D01*
X18834Y-25383D01*
X18855Y-25357D01*
X18872Y-25336D01*
X18884Y-25324D01*
X18887Y-25322D01*
X18922Y-25289D01*
X18957Y-25263D01*
X18992Y-25237D01*
X19025Y-25219D01*
X19054Y-25204D01*
X19077Y-25193D01*
X19092Y-25187D01*
X19098Y-25184D01*
X19145Y-25169D01*
X19191Y-25158D01*
X19238Y-25149D01*
X19279Y-25143D01*
X19317Y-25140D01*
X19344Y-25137D01*
X19370D01*
X19423Y-25140D01*
D02*
G37*
G36*
X29008Y-25676D02*
X29061Y-25679D01*
X29111Y-25688D01*
X29152Y-25696D01*
X29187Y-25705D01*
X29213Y-25711D01*
X29231Y-25717D01*
X29234Y-25720D01*
X29237D01*
X29284Y-25737D01*
X29327Y-25758D01*
X29366Y-25781D01*
X29398Y-25802D01*
X29427Y-25822D01*
X29448Y-25837D01*
X29459Y-25849D01*
X29465Y-25852D01*
X29500Y-25887D01*
X29530Y-25922D01*
X29556Y-25960D01*
X29576Y-25995D01*
X29594Y-26027D01*
X29606Y-26051D01*
X29614Y-26068D01*
X29617Y-26071D01*
Y-26074D01*
X29635Y-26124D01*
X29650Y-26177D01*
X29658Y-26229D01*
X29667Y-26276D01*
X29670Y-26320D01*
X29673Y-26352D01*
Y-26364D01*
Y-26373D01*
Y-26379D01*
Y-26382D01*
X29670Y-26443D01*
X29664Y-26499D01*
X29658Y-26549D01*
X29650Y-26593D01*
X29641Y-26628D01*
X29632Y-26654D01*
X29629Y-26672D01*
X29626Y-26675D01*
Y-26678D01*
X29606Y-26724D01*
X29582Y-26765D01*
X29559Y-26803D01*
X29535Y-26836D01*
X29515Y-26865D01*
X29497Y-26883D01*
X29486Y-26897D01*
X29483Y-26900D01*
X29445Y-26932D01*
X29407Y-26962D01*
X29368Y-26985D01*
X29333Y-27006D01*
X29301Y-27020D01*
X29278Y-27032D01*
X29260Y-27038D01*
X29254Y-27041D01*
X29202Y-27055D01*
X29149Y-27067D01*
X29099Y-27076D01*
X29049Y-27082D01*
X29008Y-27085D01*
X28976Y-27088D01*
X28947D01*
X28876Y-27085D01*
X28844Y-27082D01*
X28815Y-27079D01*
X28792Y-27076D01*
X28774Y-27073D01*
X28762Y-27070D01*
X28759D01*
X28698Y-27058D01*
X28669Y-27049D01*
X28645Y-27044D01*
X28625Y-27038D01*
X28610Y-27032D01*
X28601Y-27029D01*
X28598D01*
X28548Y-27008D01*
X28525Y-27000D01*
X28507Y-26991D01*
X28490Y-26985D01*
X28478Y-26979D01*
X28472Y-26973D01*
X28469D01*
X28431Y-26950D01*
X28402Y-26929D01*
X28393Y-26921D01*
X28384Y-26915D01*
X28382Y-26909D01*
X28379D01*
X28496Y-26683D01*
X28522Y-26701D01*
X28548Y-26719D01*
X28578Y-26736D01*
X28604Y-26748D01*
X28628Y-26760D01*
X28645Y-26768D01*
X28657Y-26771D01*
X28663Y-26774D01*
X28704Y-26786D01*
X28748Y-26795D01*
X28792Y-26801D01*
X28833Y-26803D01*
X28871Y-26806D01*
X28900Y-26809D01*
X28926D01*
X28982Y-26806D01*
X29008Y-26803D01*
X29032Y-26801D01*
X29049D01*
X29064Y-26798D01*
X29073Y-26795D01*
X29076D01*
X29125Y-26777D01*
X29146Y-26768D01*
X29163Y-26760D01*
X29181Y-26751D01*
X29193Y-26745D01*
X29199Y-26742D01*
X29202Y-26739D01*
X29240Y-26707D01*
X29269Y-26678D01*
X29278Y-26663D01*
X29286Y-26651D01*
X29289Y-26645D01*
X29292Y-26642D01*
X29304Y-26619D01*
X29310Y-26596D01*
X29322Y-26546D01*
Y-26528D01*
X29325Y-26511D01*
Y-26499D01*
Y-26496D01*
X28364D01*
X28355Y-26446D01*
X28346Y-26402D01*
X28340Y-26358D01*
X28338Y-26323D01*
X28335Y-26291D01*
Y-26268D01*
Y-26253D01*
Y-26247D01*
X28338Y-26188D01*
X28343Y-26133D01*
X28352Y-26086D01*
X28364Y-26048D01*
X28376Y-26016D01*
X28384Y-25992D01*
X28390Y-25978D01*
X28393Y-25972D01*
X28417Y-25931D01*
X28440Y-25899D01*
X28466Y-25866D01*
X28490Y-25843D01*
X28510Y-25822D01*
X28528Y-25808D01*
X28540Y-25799D01*
X28543Y-25796D01*
X28578Y-25773D01*
X28613Y-25752D01*
X28645Y-25737D01*
X28677Y-25723D01*
X28704Y-25714D01*
X28724Y-25708D01*
X28736Y-25702D01*
X28742D01*
X28821Y-25685D01*
X28856Y-25679D01*
X28888Y-25676D01*
X28915Y-25673D01*
X28953D01*
X29008Y-25676D01*
D02*
G37*
G36*
X23289Y-26291D02*
Y-26528D01*
X22477D01*
Y-27049D01*
X22152D01*
Y-26528D01*
X21830D01*
Y-26250D01*
X22152D01*
Y-25163D01*
X22442D01*
X23289Y-26291D01*
D02*
G37*
G36*
X20998Y-25140D02*
X21045Y-25143D01*
X21086Y-25149D01*
X21124Y-25155D01*
X21154Y-25163D01*
X21177Y-25169D01*
X21192Y-25172D01*
X21198Y-25175D01*
X21239Y-25190D01*
X21274Y-25207D01*
X21309Y-25225D01*
X21335Y-25242D01*
X21359Y-25257D01*
X21376Y-25269D01*
X21388Y-25278D01*
X21391Y-25281D01*
X21420Y-25307D01*
X21444Y-25333D01*
X21464Y-25360D01*
X21485Y-25386D01*
X21496Y-25406D01*
X21508Y-25424D01*
X21514Y-25436D01*
X21517Y-25439D01*
X21531Y-25474D01*
X21543Y-25506D01*
X21549Y-25538D01*
X21555Y-25570D01*
X21558Y-25594D01*
X21561Y-25614D01*
Y-25626D01*
Y-25632D01*
X21558Y-25691D01*
X21546Y-25740D01*
X21531Y-25787D01*
X21517Y-25825D01*
X21499Y-25858D01*
X21488Y-25878D01*
X21476Y-25893D01*
X21473Y-25899D01*
X21438Y-25937D01*
X21403Y-25972D01*
X21365Y-26004D01*
X21329Y-26030D01*
X21300Y-26054D01*
X21274Y-26068D01*
X21259Y-26080D01*
X21253Y-26083D01*
X21303Y-26112D01*
X21324Y-26127D01*
X21344Y-26142D01*
X21362Y-26153D01*
X21373Y-26162D01*
X21382Y-26168D01*
X21385Y-26171D01*
X21429Y-26209D01*
X21449Y-26227D01*
X21467Y-26244D01*
X21479Y-26259D01*
X21490Y-26270D01*
X21496Y-26279D01*
X21499Y-26282D01*
X21531Y-26329D01*
X21555Y-26376D01*
X21567Y-26393D01*
X21572Y-26408D01*
X21575Y-26420D01*
X21578Y-26423D01*
X21596Y-26481D01*
X21602Y-26511D01*
X21605Y-26537D01*
Y-26557D01*
X21608Y-26578D01*
Y-26590D01*
Y-26593D01*
X21605Y-26634D01*
X21599Y-26672D01*
X21593Y-26707D01*
X21584Y-26736D01*
X21575Y-26762D01*
X21567Y-26780D01*
X21564Y-26795D01*
X21561Y-26798D01*
X21540Y-26830D01*
X21520Y-26859D01*
X21499Y-26885D01*
X21476Y-26909D01*
X21458Y-26926D01*
X21444Y-26941D01*
X21432Y-26950D01*
X21429Y-26953D01*
X21362Y-26997D01*
X21326Y-27011D01*
X21294Y-27026D01*
X21268Y-27038D01*
X21247Y-27047D01*
X21233Y-27049D01*
X21227Y-27052D01*
X21183Y-27064D01*
X21139Y-27073D01*
X21095Y-27079D01*
X21057Y-27082D01*
X21025Y-27085D01*
X21001Y-27088D01*
X20978D01*
X20928Y-27085D01*
X20881Y-27082D01*
X20840Y-27076D01*
X20802Y-27067D01*
X20770Y-27061D01*
X20747Y-27055D01*
X20732Y-27052D01*
X20726Y-27049D01*
X20682Y-27035D01*
X20644Y-27017D01*
X20606Y-27000D01*
X20577Y-26982D01*
X20553Y-26965D01*
X20533Y-26953D01*
X20521Y-26944D01*
X20518Y-26941D01*
X20486Y-26915D01*
X20457Y-26885D01*
X20433Y-26856D01*
X20413Y-26830D01*
X20395Y-26809D01*
X20383Y-26789D01*
X20378Y-26777D01*
X20375Y-26774D01*
X20357Y-26736D01*
X20345Y-26698D01*
X20334Y-26660D01*
X20328Y-26628D01*
X20325Y-26598D01*
X20322Y-26575D01*
Y-26560D01*
Y-26555D01*
X20325Y-26493D01*
X20337Y-26434D01*
X20351Y-26388D01*
X20369Y-26344D01*
X20389Y-26311D01*
X20404Y-26288D01*
X20416Y-26273D01*
X20419Y-26268D01*
X20457Y-26227D01*
X20498Y-26188D01*
X20542Y-26153D01*
X20580Y-26124D01*
X20618Y-26101D01*
X20647Y-26083D01*
X20659Y-26077D01*
X20668Y-26071D01*
X20670Y-26068D01*
X20673D01*
X20624Y-26036D01*
X20580Y-26001D01*
X20542Y-25966D01*
X20509Y-25937D01*
X20483Y-25907D01*
X20465Y-25887D01*
X20454Y-25872D01*
X20451Y-25866D01*
X20424Y-25819D01*
X20404Y-25773D01*
X20389Y-25729D01*
X20378Y-25685D01*
X20372Y-25647D01*
X20369Y-25617D01*
Y-25606D01*
Y-25597D01*
Y-25594D01*
Y-25591D01*
X20372Y-25553D01*
X20375Y-25518D01*
X20383Y-25488D01*
X20392Y-25459D01*
X20401Y-25439D01*
X20407Y-25421D01*
X20413Y-25409D01*
X20416Y-25406D01*
X20433Y-25377D01*
X20454Y-25348D01*
X20477Y-25324D01*
X20495Y-25304D01*
X20515Y-25286D01*
X20527Y-25275D01*
X20539Y-25266D01*
X20542Y-25263D01*
X20603Y-25222D01*
X20635Y-25207D01*
X20665Y-25193D01*
X20688Y-25184D01*
X20709Y-25175D01*
X20720Y-25169D01*
X20726D01*
X20767Y-25158D01*
X20805Y-25152D01*
X20843Y-25146D01*
X20878Y-25140D01*
X20908D01*
X20931Y-25137D01*
X20952D01*
X20998Y-25140D01*
D02*
G37*
G36*
X26361Y-25471D02*
X26138D01*
Y-26596D01*
X26132Y-26680D01*
X26118Y-26754D01*
X26100Y-26815D01*
X26077Y-26868D01*
X26053Y-26909D01*
X26036Y-26938D01*
X26027Y-26947D01*
X26021Y-26956D01*
X26015Y-26959D01*
Y-26962D01*
X25989Y-26985D01*
X25962Y-27003D01*
X25904Y-27035D01*
X25839Y-27055D01*
X25778Y-27073D01*
X25722Y-27082D01*
X25699Y-27085D01*
X25678D01*
X25661Y-27088D01*
X25637D01*
X25585Y-27085D01*
X25561D01*
X25541Y-27082D01*
X25526Y-27079D01*
X25511D01*
X25506Y-27076D01*
X25503D01*
X25459Y-27067D01*
X25424Y-27058D01*
X25409Y-27055D01*
X25400Y-27052D01*
X25394Y-27049D01*
X25391D01*
X25353Y-27038D01*
X25324Y-27026D01*
X25312Y-27020D01*
X25304Y-27014D01*
X25298Y-27011D01*
X25295D01*
X25260Y-26991D01*
X25230Y-26973D01*
X25219Y-26967D01*
X25210Y-26962D01*
X25204Y-26956D01*
X25201D01*
X25333Y-26716D01*
X25374Y-26736D01*
X25409Y-26754D01*
X25421Y-26757D01*
X25432Y-26762D01*
X25438Y-26765D01*
X25441D01*
X25485Y-26774D01*
X25529Y-26777D01*
X25547Y-26780D01*
X25576D01*
X25617Y-26777D01*
X25649Y-26768D01*
X25678Y-26754D01*
X25702Y-26739D01*
X25719Y-26727D01*
X25731Y-26713D01*
X25737Y-26704D01*
X25740Y-26701D01*
X25749Y-26683D01*
X25757Y-26666D01*
X25769Y-26622D01*
X25778Y-26575D01*
X25784Y-26528D01*
X25787Y-26484D01*
X25790Y-26446D01*
Y-26434D01*
Y-26423D01*
Y-26417D01*
Y-26414D01*
Y-25175D01*
X26361D01*
Y-25471D01*
D02*
G37*
G36*
X30768Y-27049D02*
X30396D01*
X29884Y-25711D01*
X30259D01*
X30560Y-26645D01*
X30578D01*
X30938Y-25711D01*
X31342D01*
X30768Y-27049D01*
D02*
G37*
G36*
X34034D02*
X33843D01*
X33861Y-27093D01*
X33876Y-27131D01*
X33890Y-27161D01*
X33905Y-27187D01*
X33917Y-27208D01*
X33925Y-27219D01*
X33931Y-27228D01*
X33934Y-27231D01*
X33952Y-27252D01*
X33975Y-27266D01*
X33996Y-27275D01*
X34016Y-27281D01*
X34034Y-27287D01*
X34048Y-27290D01*
X34063D01*
X34095Y-27287D01*
X34125Y-27275D01*
X34136Y-27272D01*
X34145Y-27266D01*
X34151Y-27263D01*
X34154D01*
X34186Y-27243D01*
X34212Y-27225D01*
X34230Y-27213D01*
X34233Y-27208D01*
X34236D01*
X34414Y-27445D01*
X34397Y-27462D01*
X34379Y-27477D01*
X34365Y-27489D01*
X34359Y-27492D01*
X34332Y-27509D01*
X34306Y-27527D01*
X34286Y-27539D01*
X34283Y-27541D01*
X34280D01*
X34245Y-27556D01*
X34212Y-27568D01*
X34201Y-27574D01*
X34189Y-27577D01*
X34183Y-27580D01*
X34180D01*
X34139Y-27588D01*
X34101Y-27594D01*
X34086Y-27597D01*
X34063D01*
X34016Y-27594D01*
X33975Y-27588D01*
X33940Y-27582D01*
X33908Y-27571D01*
X33884Y-27562D01*
X33864Y-27556D01*
X33852Y-27550D01*
X33849Y-27547D01*
X33817Y-27527D01*
X33788Y-27503D01*
X33764Y-27480D01*
X33741Y-27459D01*
X33723Y-27439D01*
X33712Y-27421D01*
X33703Y-27410D01*
X33700Y-27407D01*
X33676Y-27372D01*
X33656Y-27334D01*
X33635Y-27298D01*
X33621Y-27263D01*
X33606Y-27234D01*
X33597Y-27211D01*
X33592Y-27196D01*
X33589Y-27190D01*
X33551Y-27096D01*
X33533Y-27049D01*
X33518Y-27008D01*
X33507Y-26970D01*
X33495Y-26944D01*
X33492Y-26932D01*
X33489Y-26924D01*
X33486Y-26921D01*
Y-26918D01*
X33105Y-25711D01*
X33466D01*
X33726Y-26672D01*
X33826D01*
X34215Y-25711D01*
X34590D01*
X34034Y-27049D01*
D02*
G37*
G36*
X27889Y-25406D02*
Y-25711D01*
X28153D01*
Y-26007D01*
X27889D01*
Y-26391D01*
X27887Y-26455D01*
X27884Y-26516D01*
X27875Y-26575D01*
X27866Y-26628D01*
X27854Y-26675D01*
X27843Y-26719D01*
X27828Y-26757D01*
X27813Y-26792D01*
X27802Y-26821D01*
X27787Y-26847D01*
X27775Y-26871D01*
X27764Y-26888D01*
X27755Y-26903D01*
X27746Y-26912D01*
X27743Y-26918D01*
X27740Y-26921D01*
X27711Y-26950D01*
X27676Y-26976D01*
X27641Y-26997D01*
X27605Y-27017D01*
X27567Y-27032D01*
X27529Y-27047D01*
X27456Y-27067D01*
X27424Y-27073D01*
X27392Y-27079D01*
X27362Y-27082D01*
X27339Y-27085D01*
X27318Y-27088D01*
X27289D01*
X27228Y-27085D01*
X27198Y-27082D01*
X27172Y-27076D01*
X27151Y-27073D01*
X27134Y-27070D01*
X27122Y-27067D01*
X27119D01*
X27058Y-27052D01*
X27031Y-27044D01*
X27005Y-27035D01*
X26985Y-27029D01*
X26970Y-27023D01*
X26958Y-27017D01*
X26955D01*
X26900Y-26991D01*
X26873Y-26979D01*
X26853Y-26967D01*
X26835Y-26956D01*
X26821Y-26947D01*
X26812Y-26944D01*
X26809Y-26941D01*
X26762Y-26906D01*
X26741Y-26891D01*
X26724Y-26877D01*
X26709Y-26862D01*
X26700Y-26853D01*
X26695Y-26847D01*
X26692Y-26844D01*
X26853Y-26601D01*
X26879Y-26622D01*
X26903Y-26642D01*
X26920Y-26657D01*
X26923Y-26660D01*
X26926Y-26663D01*
X26955Y-26683D01*
X26982Y-26704D01*
X26993Y-26710D01*
X27002Y-26716D01*
X27008Y-26721D01*
X27011D01*
X27046Y-26739D01*
X27081Y-26754D01*
X27096Y-26760D01*
X27108Y-26762D01*
X27113Y-26765D01*
X27116D01*
X27160Y-26774D01*
X27204Y-26777D01*
X27222Y-26780D01*
X27248D01*
X27298Y-26777D01*
X27339Y-26765D01*
X27377Y-26751D01*
X27409Y-26733D01*
X27433Y-26719D01*
X27450Y-26704D01*
X27462Y-26692D01*
X27465Y-26689D01*
X27491Y-26648D01*
X27509Y-26604D01*
X27523Y-26555D01*
X27532Y-26505D01*
X27538Y-26461D01*
Y-26440D01*
X27541Y-26423D01*
Y-26411D01*
Y-26399D01*
Y-26393D01*
Y-26391D01*
Y-26007D01*
X26841D01*
Y-25711D01*
X27541D01*
Y-25307D01*
X27889Y-25406D01*
D02*
G37*
G36*
X31881Y-22128D02*
X31923Y-22135D01*
X31961Y-22142D01*
X31993Y-22153D01*
X32021Y-22167D01*
X32039Y-22174D01*
X32053Y-22181D01*
X32056Y-22184D01*
X32088Y-22209D01*
X32116Y-22233D01*
X32141Y-22258D01*
X32162Y-22283D01*
X32176Y-22307D01*
X32186Y-22321D01*
X32193Y-22335D01*
X32197Y-22339D01*
X32207D01*
X32250Y-22160D01*
X32555D01*
Y-23766D01*
X32169D01*
Y-22606D01*
X32155Y-22571D01*
X32134Y-22543D01*
X32116Y-22525D01*
X32113Y-22518D01*
X32109D01*
X32091Y-22504D01*
X32074Y-22497D01*
X32042Y-22483D01*
X32028D01*
X32018Y-22479D01*
X32007D01*
X31986Y-22483D01*
X31965Y-22486D01*
X31951Y-22490D01*
X31947Y-22494D01*
X31926Y-22504D01*
X31909Y-22522D01*
X31898Y-22532D01*
X31895Y-22539D01*
X31881Y-22567D01*
X31870Y-22595D01*
X31866Y-22610D01*
X31863Y-22620D01*
X31859Y-22627D01*
Y-22631D01*
X31852Y-22680D01*
X31845Y-22729D01*
Y-22754D01*
Y-22768D01*
Y-22782D01*
Y-22785D01*
Y-23766D01*
X31459D01*
Y-22595D01*
X31445Y-22557D01*
X31424Y-22529D01*
X31409Y-22511D01*
X31402Y-22508D01*
X31371Y-22490D01*
X31336Y-22483D01*
X31325Y-22479D01*
X31304D01*
X31279Y-22483D01*
X31258Y-22490D01*
X31223Y-22508D01*
X31209Y-22522D01*
X31199Y-22529D01*
X31195Y-22536D01*
X31191Y-22539D01*
X31174Y-22564D01*
X31163Y-22595D01*
X31149Y-22659D01*
X31146Y-22690D01*
X31142Y-22715D01*
Y-22733D01*
Y-22740D01*
Y-23766D01*
X30756D01*
Y-22669D01*
Y-22610D01*
X30759Y-22557D01*
X30763Y-22511D01*
X30770Y-22472D01*
X30773Y-22444D01*
X30780Y-22420D01*
X30784Y-22406D01*
Y-22402D01*
X30794Y-22363D01*
X30808Y-22332D01*
X30822Y-22304D01*
X30833Y-22279D01*
X30847Y-22262D01*
X30854Y-22247D01*
X30861Y-22240D01*
X30865Y-22237D01*
X30882Y-22216D01*
X30903Y-22195D01*
X30942Y-22170D01*
X30959Y-22160D01*
X30974Y-22153D01*
X30981Y-22149D01*
X30984D01*
X31037Y-22135D01*
X31086Y-22128D01*
X31107Y-22124D01*
X31139D01*
X31181Y-22128D01*
X31223Y-22135D01*
X31258Y-22142D01*
X31290Y-22153D01*
X31318Y-22167D01*
X31339Y-22174D01*
X31353Y-22181D01*
X31357Y-22184D01*
X31392Y-22209D01*
X31420Y-22237D01*
X31445Y-22265D01*
X31466Y-22293D01*
X31480Y-22318D01*
X31490Y-22339D01*
X31497Y-22353D01*
X31501Y-22356D01*
X31515Y-22311D01*
X31536Y-22276D01*
X31557Y-22244D01*
X31582Y-22219D01*
X31603Y-22202D01*
X31617Y-22188D01*
X31631Y-22181D01*
X31634Y-22177D01*
X31670Y-22160D01*
X31705Y-22146D01*
X31740Y-22138D01*
X31772Y-22131D01*
X31796Y-22128D01*
X31817Y-22124D01*
X31835D01*
X31881Y-22128D01*
D02*
G37*
G36*
X20955Y-22258D02*
X20600D01*
Y-21871D01*
X20294D01*
Y-23411D01*
X20659D01*
Y-23766D01*
X19492D01*
Y-23411D01*
X19854D01*
Y-21871D01*
X19552D01*
Y-22258D01*
X19197D01*
Y-21516D01*
X20955D01*
Y-22258D01*
D02*
G37*
G36*
X25869Y-22117D02*
X25933Y-22121D01*
X25992Y-22131D01*
X26042Y-22142D01*
X26084Y-22153D01*
X26115Y-22160D01*
X26136Y-22167D01*
X26140Y-22170D01*
X26143D01*
X26200Y-22191D01*
X26252Y-22216D01*
X26298Y-22244D01*
X26337Y-22269D01*
X26372Y-22293D01*
X26397Y-22311D01*
X26411Y-22325D01*
X26418Y-22328D01*
X26460Y-22370D01*
X26495Y-22413D01*
X26527Y-22458D01*
X26551Y-22501D01*
X26572Y-22539D01*
X26586Y-22567D01*
X26597Y-22588D01*
X26600Y-22592D01*
Y-22595D01*
X26622Y-22655D01*
X26639Y-22719D01*
X26650Y-22782D01*
X26660Y-22838D01*
X26664Y-22891D01*
X26667Y-22929D01*
Y-22943D01*
Y-22954D01*
Y-22961D01*
Y-22965D01*
X26664Y-23038D01*
X26657Y-23105D01*
X26650Y-23165D01*
X26639Y-23218D01*
X26629Y-23260D01*
X26618Y-23292D01*
X26615Y-23313D01*
X26611Y-23316D01*
Y-23320D01*
X26586Y-23376D01*
X26558Y-23425D01*
X26530Y-23471D01*
X26502Y-23509D01*
X26477Y-23545D01*
X26456Y-23566D01*
X26442Y-23583D01*
X26439Y-23587D01*
X26393Y-23625D01*
X26347Y-23661D01*
X26302Y-23689D01*
X26259Y-23713D01*
X26221Y-23731D01*
X26193Y-23745D01*
X26172Y-23752D01*
X26165Y-23756D01*
X26101Y-23773D01*
X26038Y-23787D01*
X25978Y-23798D01*
X25918Y-23805D01*
X25869Y-23808D01*
X25831Y-23812D01*
X25795D01*
X25711Y-23808D01*
X25672Y-23805D01*
X25637Y-23801D01*
X25609Y-23798D01*
X25588Y-23794D01*
X25574Y-23791D01*
X25570D01*
X25497Y-23777D01*
X25461Y-23766D01*
X25433Y-23759D01*
X25409Y-23752D01*
X25391Y-23745D01*
X25381Y-23741D01*
X25377D01*
X25317Y-23717D01*
X25289Y-23706D01*
X25268Y-23696D01*
X25247Y-23689D01*
X25233Y-23682D01*
X25226Y-23675D01*
X25222D01*
X25177Y-23647D01*
X25142Y-23622D01*
X25131Y-23611D01*
X25120Y-23604D01*
X25117Y-23597D01*
X25113D01*
X25254Y-23327D01*
X25286Y-23348D01*
X25317Y-23369D01*
X25352Y-23390D01*
X25384Y-23404D01*
X25412Y-23418D01*
X25433Y-23429D01*
X25447Y-23432D01*
X25454Y-23436D01*
X25504Y-23450D01*
X25556Y-23460D01*
X25609Y-23467D01*
X25658Y-23471D01*
X25704Y-23474D01*
X25739Y-23478D01*
X25771D01*
X25838Y-23474D01*
X25869Y-23471D01*
X25897Y-23467D01*
X25918D01*
X25936Y-23464D01*
X25947Y-23460D01*
X25950D01*
X26010Y-23439D01*
X26034Y-23429D01*
X26056Y-23418D01*
X26077Y-23408D01*
X26091Y-23400D01*
X26098Y-23397D01*
X26101Y-23393D01*
X26147Y-23355D01*
X26182Y-23320D01*
X26193Y-23302D01*
X26203Y-23288D01*
X26207Y-23281D01*
X26210Y-23277D01*
X26224Y-23249D01*
X26231Y-23221D01*
X26245Y-23161D01*
Y-23140D01*
X26249Y-23119D01*
Y-23105D01*
Y-23102D01*
X25096D01*
X25085Y-23042D01*
X25075Y-22989D01*
X25068Y-22936D01*
X25064Y-22894D01*
X25061Y-22856D01*
Y-22827D01*
Y-22810D01*
Y-22803D01*
X25064Y-22733D01*
X25071Y-22666D01*
X25082Y-22610D01*
X25096Y-22564D01*
X25110Y-22525D01*
X25120Y-22497D01*
X25128Y-22479D01*
X25131Y-22472D01*
X25159Y-22423D01*
X25187Y-22385D01*
X25219Y-22346D01*
X25247Y-22318D01*
X25272Y-22293D01*
X25293Y-22276D01*
X25307Y-22265D01*
X25310Y-22262D01*
X25352Y-22233D01*
X25395Y-22209D01*
X25433Y-22191D01*
X25472Y-22174D01*
X25504Y-22163D01*
X25528Y-22156D01*
X25542Y-22149D01*
X25549D01*
X25644Y-22128D01*
X25686Y-22121D01*
X25725Y-22117D01*
X25757Y-22114D01*
X25802D01*
X25869Y-22117D01*
D02*
G37*
G36*
X24720Y-23766D02*
X24301D01*
Y-22704D01*
X24322Y-22437D01*
X24305D01*
X23539Y-23766D01*
X23152D01*
Y-21516D01*
X23570D01*
Y-22624D01*
X23542Y-22894D01*
X23560D01*
X24337Y-21516D01*
X24720D01*
Y-23766D01*
D02*
G37*
G36*
X28481Y-21871D02*
X28214D01*
Y-23221D01*
X28207Y-23323D01*
X28189Y-23411D01*
X28168Y-23485D01*
X28140Y-23548D01*
X28112Y-23597D01*
X28091Y-23633D01*
X28080Y-23643D01*
X28073Y-23654D01*
X28066Y-23657D01*
Y-23661D01*
X28035Y-23689D01*
X28003Y-23710D01*
X27933Y-23749D01*
X27855Y-23773D01*
X27782Y-23794D01*
X27715Y-23805D01*
X27687Y-23808D01*
X27662D01*
X27641Y-23812D01*
X27613D01*
X27550Y-23808D01*
X27521D01*
X27497Y-23805D01*
X27479Y-23801D01*
X27462D01*
X27455Y-23798D01*
X27451D01*
X27398Y-23787D01*
X27356Y-23777D01*
X27339Y-23773D01*
X27328Y-23770D01*
X27321Y-23766D01*
X27318D01*
X27272Y-23752D01*
X27237Y-23738D01*
X27223Y-23731D01*
X27212Y-23724D01*
X27205Y-23720D01*
X27202D01*
X27159Y-23696D01*
X27124Y-23675D01*
X27110Y-23668D01*
X27100Y-23661D01*
X27093Y-23654D01*
X27089D01*
X27247Y-23365D01*
X27296Y-23390D01*
X27339Y-23411D01*
X27353Y-23415D01*
X27367Y-23422D01*
X27374Y-23425D01*
X27377D01*
X27430Y-23436D01*
X27483Y-23439D01*
X27504Y-23443D01*
X27539D01*
X27588Y-23439D01*
X27627Y-23429D01*
X27662Y-23411D01*
X27690Y-23393D01*
X27711Y-23379D01*
X27725Y-23362D01*
X27732Y-23351D01*
X27736Y-23348D01*
X27746Y-23327D01*
X27757Y-23306D01*
X27771Y-23253D01*
X27782Y-23197D01*
X27789Y-23140D01*
X27792Y-23088D01*
X27796Y-23042D01*
Y-23028D01*
Y-23014D01*
Y-23007D01*
Y-23003D01*
Y-21516D01*
X28481D01*
Y-21871D01*
D02*
G37*
G36*
X22224Y-22940D02*
Y-23766D01*
X21784D01*
Y-22936D01*
X21064Y-21516D01*
X21535D01*
X21978Y-22448D01*
X21995D01*
X22428Y-21516D01*
X22951D01*
X22224Y-22940D01*
D02*
G37*
G36*
X33638Y-21485D02*
X33680Y-21492D01*
X33716Y-21506D01*
X33744Y-21516D01*
X33765Y-21530D01*
X33782Y-21544D01*
X33793Y-21551D01*
X33796Y-21555D01*
X33821Y-21583D01*
X33839Y-21611D01*
X33853Y-21639D01*
X33860Y-21664D01*
X33867Y-21689D01*
X33870Y-21706D01*
Y-21720D01*
Y-21724D01*
X33867Y-21759D01*
X33860Y-21794D01*
X33846Y-21822D01*
X33832Y-21847D01*
X33821Y-21864D01*
X33807Y-21882D01*
X33800Y-21889D01*
X33796Y-21892D01*
X33765Y-21913D01*
X33733Y-21928D01*
X33698Y-21942D01*
X33666Y-21949D01*
X33638Y-21952D01*
X33614Y-21956D01*
X33592D01*
X33543Y-21952D01*
X33501Y-21945D01*
X33462Y-21935D01*
X33431Y-21924D01*
X33406Y-21913D01*
X33389Y-21903D01*
X33378Y-21896D01*
X33375Y-21892D01*
X33346Y-21864D01*
X33329Y-21836D01*
X33315Y-21808D01*
X33304Y-21783D01*
X33297Y-21759D01*
X33294Y-21741D01*
Y-21727D01*
Y-21724D01*
X33297Y-21689D01*
X33308Y-21657D01*
X33318Y-21625D01*
X33332Y-21601D01*
X33350Y-21583D01*
X33360Y-21569D01*
X33371Y-21558D01*
X33375Y-21555D01*
X33406Y-21530D01*
X33441Y-21513D01*
X33480Y-21499D01*
X33515Y-21492D01*
X33543Y-21485D01*
X33571Y-21481D01*
X33592D01*
X33638Y-21485D01*
D02*
G37*
G36*
X28055Y-29126D02*
X27897Y-29340D01*
X27542Y-29071D01*
Y-30239D01*
X27952D01*
Y-30535D01*
X26810D01*
Y-30239D01*
X27211D01*
Y-28661D01*
X27448D01*
X28055Y-29126D01*
D02*
G37*
G36*
X24315Y-28626D02*
X24376Y-28631D01*
X24429Y-28640D01*
X24476Y-28649D01*
X24514Y-28661D01*
X24543Y-28669D01*
X24552Y-28672D01*
X24561Y-28675D01*
X24564Y-28678D01*
X24567D01*
X24617Y-28699D01*
X24663Y-28722D01*
X24707Y-28746D01*
X24742Y-28766D01*
X24772Y-28784D01*
X24795Y-28798D01*
X24810Y-28810D01*
X24816Y-28813D01*
X24678Y-29059D01*
X24646Y-29036D01*
X24617Y-29015D01*
X24590Y-28997D01*
X24564Y-28986D01*
X24543Y-28974D01*
X24529Y-28968D01*
X24517Y-28962D01*
X24514D01*
X24485Y-28951D01*
X24453Y-28945D01*
X24423Y-28939D01*
X24397Y-28933D01*
X24373D01*
X24356Y-28930D01*
X24338D01*
X24286Y-28933D01*
X24265Y-28936D01*
X24245Y-28942D01*
X24230Y-28945D01*
X24215Y-28951D01*
X24209Y-28954D01*
X24207D01*
X24166Y-28974D01*
X24133Y-28995D01*
X24122Y-29003D01*
X24110Y-29012D01*
X24107Y-29015D01*
X24104Y-29018D01*
X24075Y-29047D01*
X24054Y-29077D01*
X24045Y-29088D01*
X24040Y-29097D01*
X24037Y-29103D01*
Y-29106D01*
X24022Y-29144D01*
X24013Y-29176D01*
X24010Y-29191D01*
Y-29202D01*
Y-29208D01*
Y-29211D01*
X24013Y-29264D01*
X24016Y-29290D01*
X24022Y-29311D01*
X24025Y-29331D01*
X24031Y-29346D01*
X24034Y-29355D01*
Y-29358D01*
X24051Y-29410D01*
X24063Y-29434D01*
X24075Y-29454D01*
X24084Y-29475D01*
X24092Y-29490D01*
X24095Y-29498D01*
X24098Y-29501D01*
X24133Y-29557D01*
X24154Y-29583D01*
X24171Y-29607D01*
X24189Y-29627D01*
X24201Y-29645D01*
X24209Y-29656D01*
X24212Y-29659D01*
X24265Y-29724D01*
X24291Y-29753D01*
X24318Y-29782D01*
X24338Y-29806D01*
X24356Y-29826D01*
X24368Y-29838D01*
X24371Y-29844D01*
X24417Y-29894D01*
X24441Y-29917D01*
X24461Y-29938D01*
X24479Y-29955D01*
X24491Y-29970D01*
X24499Y-29979D01*
X24502Y-29982D01*
X24552Y-30028D01*
X24573Y-30049D01*
X24593Y-30069D01*
X24608Y-30084D01*
X24619Y-30096D01*
X24628Y-30102D01*
X24631Y-30105D01*
X24672Y-30143D01*
X24707Y-30175D01*
X24722Y-30187D01*
X24731Y-30195D01*
X24737Y-30201D01*
X24740Y-30204D01*
X24772Y-30233D01*
X24795Y-30257D01*
X24810Y-30269D01*
X24816Y-30274D01*
Y-30535D01*
X23621D01*
Y-30239D01*
X24394D01*
X24356Y-30210D01*
X24321Y-30181D01*
X24306Y-30169D01*
X24294Y-30157D01*
X24289Y-30151D01*
X24286Y-30148D01*
X24242Y-30105D01*
X24201Y-30066D01*
X24186Y-30052D01*
X24174Y-30040D01*
X24166Y-30031D01*
X24163Y-30028D01*
X24119Y-29979D01*
X24095Y-29958D01*
X24078Y-29938D01*
X24063Y-29920D01*
X24051Y-29905D01*
X24043Y-29897D01*
X24040Y-29894D01*
X23993Y-29841D01*
X23975Y-29818D01*
X23958Y-29797D01*
X23943Y-29779D01*
X23931Y-29765D01*
X23925Y-29756D01*
X23922Y-29753D01*
X23896Y-29718D01*
X23876Y-29686D01*
X23855Y-29659D01*
X23838Y-29633D01*
X23823Y-29612D01*
X23814Y-29598D01*
X23808Y-29586D01*
X23805Y-29583D01*
X23773Y-29525D01*
X23758Y-29501D01*
X23747Y-29478D01*
X23738Y-29457D01*
X23732Y-29443D01*
X23726Y-29434D01*
Y-29431D01*
X23706Y-29378D01*
X23697Y-29352D01*
X23691Y-29331D01*
X23685Y-29311D01*
X23682Y-29296D01*
X23679Y-29287D01*
Y-29285D01*
X23668Y-29229D01*
X23665Y-29202D01*
Y-29179D01*
X23662Y-29156D01*
Y-29141D01*
Y-29129D01*
Y-29126D01*
X23665Y-29079D01*
X23671Y-29038D01*
X23676Y-29000D01*
X23685Y-28968D01*
X23697Y-28942D01*
X23703Y-28924D01*
X23709Y-28910D01*
X23712Y-28907D01*
X23729Y-28874D01*
X23753Y-28842D01*
X23773Y-28816D01*
X23794Y-28792D01*
X23811Y-28775D01*
X23826Y-28763D01*
X23838Y-28754D01*
X23840Y-28751D01*
X23873Y-28728D01*
X23905Y-28710D01*
X23937Y-28693D01*
X23963Y-28678D01*
X23990Y-28669D01*
X24010Y-28661D01*
X24022Y-28655D01*
X24028D01*
X24069Y-28643D01*
X24107Y-28637D01*
X24145Y-28631D01*
X24177Y-28626D01*
X24207D01*
X24230Y-28623D01*
X24250D01*
X24315Y-28626D01*
D02*
G37*
G36*
X34359Y-22515D02*
X33793D01*
Y-23411D01*
X34359D01*
Y-23766D01*
X32780D01*
Y-23411D01*
X33375D01*
Y-22160D01*
X34359D01*
Y-22515D01*
D02*
G37*
G36*
X35558Y-21474D02*
X35617Y-21478D01*
X35670Y-21485D01*
X35716Y-21495D01*
X35754Y-21506D01*
X35786Y-21513D01*
X35804Y-21516D01*
X35811Y-21520D01*
X35860Y-21541D01*
X35909Y-21562D01*
X35948Y-21583D01*
X35983Y-21608D01*
X36015Y-21625D01*
X36036Y-21643D01*
X36050Y-21653D01*
X36053Y-21657D01*
X36088Y-21689D01*
X36120Y-21724D01*
X36145Y-21759D01*
X36166Y-21790D01*
X36183Y-21822D01*
X36197Y-21843D01*
X36204Y-21857D01*
X36208Y-21864D01*
X36225Y-21910D01*
X36240Y-21956D01*
X36250Y-22001D01*
X36257Y-22040D01*
X36261Y-22075D01*
X36264Y-22103D01*
Y-22121D01*
Y-22128D01*
X36261Y-22195D01*
X36250Y-22254D01*
X36240Y-22311D01*
X36222Y-22353D01*
X36208Y-22388D01*
X36197Y-22416D01*
X36187Y-22430D01*
X36183Y-22437D01*
X36152Y-22479D01*
X36117Y-22518D01*
X36085Y-22553D01*
X36053Y-22581D01*
X36025Y-22606D01*
X36004Y-22624D01*
X35986Y-22634D01*
X35983Y-22638D01*
X35888Y-22690D01*
X35846Y-22711D01*
X35804Y-22733D01*
X35769Y-22747D01*
X35744Y-22757D01*
X35726Y-22764D01*
X35719Y-22768D01*
X35667Y-22785D01*
X35617Y-22803D01*
X35572Y-22820D01*
X35533Y-22838D01*
X35501Y-22849D01*
X35477Y-22859D01*
X35463Y-22866D01*
X35456Y-22870D01*
X35410Y-22887D01*
X35371Y-22908D01*
X35336Y-22929D01*
X35308Y-22947D01*
X35283Y-22965D01*
X35266Y-22979D01*
X35255Y-22986D01*
X35252Y-22989D01*
X35224Y-23017D01*
X35203Y-23045D01*
X35188Y-23074D01*
X35178Y-23102D01*
X35171Y-23126D01*
X35167Y-23147D01*
Y-23161D01*
Y-23165D01*
X35171Y-23207D01*
X35181Y-23246D01*
X35199Y-23277D01*
X35217Y-23306D01*
X35238Y-23330D01*
X35252Y-23344D01*
X35266Y-23355D01*
X35269Y-23358D01*
X35308Y-23383D01*
X35354Y-23400D01*
X35399Y-23411D01*
X35445Y-23418D01*
X35484Y-23425D01*
X35519Y-23429D01*
X35547D01*
X35621Y-23425D01*
X35653Y-23422D01*
X35681Y-23418D01*
X35705D01*
X35723Y-23415D01*
X35733Y-23411D01*
X35737D01*
X35800Y-23393D01*
X35828Y-23386D01*
X35849Y-23376D01*
X35870Y-23369D01*
X35885Y-23362D01*
X35895Y-23358D01*
X35899D01*
X35913Y-23355D01*
X35916Y-23351D01*
Y-23031D01*
X36271D01*
Y-23629D01*
X36240Y-23647D01*
X36204Y-23668D01*
X36190Y-23675D01*
X36176Y-23678D01*
X36169Y-23685D01*
X36166D01*
X36109Y-23706D01*
X36060Y-23727D01*
X36039Y-23734D01*
X36022Y-23741D01*
X36011Y-23745D01*
X36008D01*
X35941Y-23763D01*
X35909Y-23773D01*
X35877Y-23777D01*
X35853Y-23784D01*
X35832Y-23787D01*
X35818Y-23791D01*
X35814D01*
X35733Y-23801D01*
X35698Y-23808D01*
X35663D01*
X35631Y-23812D01*
X35589D01*
X35522Y-23808D01*
X35459Y-23805D01*
X35399Y-23798D01*
X35350Y-23791D01*
X35308Y-23784D01*
X35276Y-23777D01*
X35255Y-23770D01*
X35248D01*
X35192Y-23752D01*
X35139Y-23731D01*
X35094Y-23710D01*
X35051Y-23689D01*
X35020Y-23671D01*
X34995Y-23654D01*
X34978Y-23643D01*
X34974Y-23640D01*
X34932Y-23604D01*
X34897Y-23566D01*
X34865Y-23531D01*
X34840Y-23495D01*
X34819Y-23464D01*
X34805Y-23439D01*
X34798Y-23425D01*
X34795Y-23418D01*
X34774Y-23369D01*
X34756Y-23316D01*
X34746Y-23263D01*
X34735Y-23218D01*
X34731Y-23176D01*
X34728Y-23144D01*
Y-23123D01*
Y-23119D01*
Y-23116D01*
X34731Y-23052D01*
X34742Y-22993D01*
X34756Y-22943D01*
X34770Y-22898D01*
X34784Y-22863D01*
X34798Y-22838D01*
X34809Y-22824D01*
X34812Y-22817D01*
X34844Y-22775D01*
X34879Y-22736D01*
X34911Y-22701D01*
X34946Y-22673D01*
X34974Y-22652D01*
X34995Y-22634D01*
X35009Y-22624D01*
X35016Y-22620D01*
X35108Y-22564D01*
X35153Y-22543D01*
X35192Y-22522D01*
X35227Y-22508D01*
X35255Y-22497D01*
X35273Y-22490D01*
X35280Y-22486D01*
X35333Y-22465D01*
X35382Y-22444D01*
X35424Y-22427D01*
X35463Y-22409D01*
X35498Y-22399D01*
X35522Y-22388D01*
X35536Y-22381D01*
X35544Y-22378D01*
X35586Y-22356D01*
X35624Y-22335D01*
X35660Y-22314D01*
X35688Y-22293D01*
X35712Y-22279D01*
X35730Y-22265D01*
X35740Y-22258D01*
X35744Y-22254D01*
X35772Y-22226D01*
X35790Y-22198D01*
X35804Y-22170D01*
X35814Y-22142D01*
X35821Y-22117D01*
X35825Y-22096D01*
Y-22082D01*
Y-22079D01*
X35821Y-22044D01*
X35811Y-22012D01*
X35797Y-21984D01*
X35779Y-21959D01*
X35765Y-21942D01*
X35751Y-21928D01*
X35740Y-21921D01*
X35737Y-21917D01*
X35702Y-21896D01*
X35663Y-21882D01*
X35621Y-21868D01*
X35582Y-21861D01*
X35547Y-21857D01*
X35519Y-21854D01*
X35494D01*
X35438Y-21857D01*
X35410D01*
X35385Y-21861D01*
X35364Y-21864D01*
X35350D01*
X35340Y-21868D01*
X35336D01*
X35276Y-21875D01*
X35248Y-21882D01*
X35227Y-21885D01*
X35210Y-21889D01*
X35192Y-21892D01*
X35185Y-21896D01*
X35181D01*
X35167Y-21899D01*
X35160D01*
Y-22254D01*
X34805D01*
Y-21604D01*
X34851Y-21583D01*
X34900Y-21565D01*
X34949Y-21548D01*
X34999Y-21534D01*
X35041Y-21523D01*
X35076Y-21516D01*
X35090Y-21513D01*
X35101Y-21509D01*
X35108D01*
X35178Y-21495D01*
X35248Y-21488D01*
X35315Y-21481D01*
X35371Y-21474D01*
X35420D01*
X35459Y-21471D01*
X35494D01*
X35558Y-21474D01*
D02*
G37*
G36*
X29613Y-22117D02*
X29676Y-22124D01*
X29733Y-22135D01*
X29789Y-22153D01*
X29835Y-22170D01*
X29880Y-22188D01*
X29919Y-22212D01*
X29954Y-22233D01*
X29986Y-22254D01*
X30014Y-22276D01*
X30035Y-22297D01*
X30053Y-22314D01*
X30067Y-22332D01*
X30077Y-22342D01*
X30081Y-22349D01*
X30084Y-22353D01*
X30098D01*
X30147Y-22160D01*
X30692D01*
Y-22515D01*
X30450D01*
Y-24409D01*
X30031D01*
Y-23752D01*
X29979Y-23770D01*
X29929Y-23784D01*
X29905Y-23787D01*
X29887Y-23791D01*
X29877Y-23794D01*
X29873D01*
X29799Y-23805D01*
X29768Y-23808D01*
X29736D01*
X29712Y-23812D01*
X29676D01*
X29606Y-23808D01*
X29543Y-23801D01*
X29487Y-23794D01*
X29437Y-23780D01*
X29395Y-23770D01*
X29364Y-23763D01*
X29346Y-23756D01*
X29339Y-23752D01*
X29286Y-23727D01*
X29237Y-23699D01*
X29195Y-23671D01*
X29160Y-23643D01*
X29128Y-23615D01*
X29107Y-23594D01*
X29093Y-23580D01*
X29089Y-23576D01*
X29054Y-23531D01*
X29023Y-23485D01*
X28994Y-23436D01*
X28973Y-23393D01*
X28956Y-23355D01*
X28942Y-23323D01*
X28935Y-23302D01*
X28931Y-23299D01*
Y-23295D01*
X28914Y-23232D01*
X28899Y-23168D01*
X28889Y-23105D01*
X28882Y-23045D01*
X28878Y-22996D01*
X28875Y-22958D01*
Y-22943D01*
Y-22933D01*
Y-22926D01*
Y-22922D01*
X28878Y-22845D01*
X28882Y-22778D01*
X28889Y-22715D01*
X28899Y-22662D01*
X28910Y-22620D01*
X28917Y-22588D01*
X28921Y-22567D01*
X28924Y-22560D01*
X28945Y-22508D01*
X28966Y-22458D01*
X28987Y-22416D01*
X29012Y-22378D01*
X29030Y-22349D01*
X29047Y-22328D01*
X29058Y-22314D01*
X29061Y-22311D01*
X29096Y-22276D01*
X29132Y-22244D01*
X29167Y-22219D01*
X29202Y-22198D01*
X29230Y-22184D01*
X29255Y-22170D01*
X29269Y-22167D01*
X29276Y-22163D01*
X29321Y-22146D01*
X29371Y-22135D01*
X29416Y-22124D01*
X29458Y-22121D01*
X29494Y-22117D01*
X29522Y-22114D01*
X29546D01*
X29613Y-22117D01*
D02*
G37*
%LPC*%
G36*
X21013Y-26212D02*
X20969Y-26235D01*
X20931Y-26256D01*
X20916Y-26265D01*
X20905Y-26270D01*
X20896Y-26273D01*
X20893Y-26276D01*
X20846Y-26300D01*
X20829Y-26311D01*
X20811Y-26323D01*
X20796Y-26332D01*
X20785Y-26341D01*
X20779Y-26344D01*
X20776Y-26347D01*
X20741Y-26376D01*
X20711Y-26402D01*
X20703Y-26414D01*
X20694Y-26423D01*
X20691Y-26429D01*
X20688Y-26432D01*
X20676Y-26449D01*
X20668Y-26470D01*
X20656Y-26505D01*
Y-26522D01*
X20653Y-26534D01*
Y-26543D01*
Y-26546D01*
X20656Y-26587D01*
X20668Y-26625D01*
X20682Y-26657D01*
X20697Y-26683D01*
X20714Y-26704D01*
X20729Y-26719D01*
X20741Y-26727D01*
X20744Y-26730D01*
X20779Y-26751D01*
X20817Y-26765D01*
X20855Y-26777D01*
X20890Y-26783D01*
X20922Y-26789D01*
X20946Y-26792D01*
X20969D01*
X21022Y-26789D01*
X21072Y-26783D01*
X21110Y-26771D01*
X21145Y-26760D01*
X21171Y-26748D01*
X21192Y-26736D01*
X21203Y-26730D01*
X21206Y-26727D01*
X21236Y-26701D01*
X21256Y-26672D01*
X21271Y-26639D01*
X21280Y-26610D01*
X21285Y-26581D01*
X21291Y-26560D01*
Y-26546D01*
Y-26540D01*
X21288Y-26508D01*
X21280Y-26478D01*
X21268Y-26449D01*
X21256Y-26423D01*
X21244Y-26399D01*
X21233Y-26382D01*
X21224Y-26370D01*
X21221Y-26367D01*
X21192Y-26335D01*
X21157Y-26303D01*
X21124Y-26276D01*
X21089Y-26253D01*
X21060Y-26235D01*
X21037Y-26224D01*
X21019Y-26215D01*
X21013Y-26212D01*
D02*
G37*
G36*
X35425Y-25975D02*
X35419D01*
X35363Y-25978D01*
X35314Y-25989D01*
X35273Y-26004D01*
X35240Y-26021D01*
X35214Y-26042D01*
X35193Y-26057D01*
X35182Y-26068D01*
X35179Y-26071D01*
X35152Y-26112D01*
X35132Y-26156D01*
X35117Y-26203D01*
X35106Y-26250D01*
X35100Y-26294D01*
X35097Y-26326D01*
Y-26341D01*
Y-26350D01*
Y-26355D01*
Y-26358D01*
Y-26399D01*
X35103Y-26434D01*
X35106Y-26470D01*
X35111Y-26496D01*
X35117Y-26519D01*
X35120Y-26537D01*
X35126Y-26549D01*
Y-26552D01*
X35138Y-26581D01*
X35150Y-26604D01*
X35161Y-26628D01*
X35173Y-26648D01*
X35182Y-26663D01*
X35191Y-26675D01*
X35196Y-26680D01*
X35199Y-26683D01*
X35237Y-26719D01*
X35273Y-26742D01*
X35287Y-26751D01*
X35299Y-26757D01*
X35308Y-26762D01*
X35311D01*
X35357Y-26777D01*
X35398Y-26783D01*
X35416Y-26786D01*
X35439D01*
X35501Y-26783D01*
X35530Y-26780D01*
X35554Y-26774D01*
X35574Y-26771D01*
X35589Y-26768D01*
X35601Y-26765D01*
X35603D01*
X35630Y-26757D01*
X35653Y-26751D01*
X35671Y-26742D01*
X35688Y-26736D01*
X35700Y-26733D01*
X35709Y-26727D01*
X35715Y-26724D01*
X35718D01*
Y-26168D01*
X35703Y-26136D01*
X35688Y-26112D01*
X35674Y-26095D01*
X35668Y-26092D01*
Y-26089D01*
X35639Y-26062D01*
X35615Y-26045D01*
X35595Y-26030D01*
X35592Y-26027D01*
X35589D01*
X35560Y-26013D01*
X35530Y-25998D01*
X35519Y-25995D01*
X35513Y-25992D01*
X35507Y-25989D01*
X35504D01*
X35472Y-25980D01*
X35442Y-25978D01*
X35425Y-25975D01*
D02*
G37*
G36*
X25838Y-22448D02*
X25809D01*
X25746Y-22451D01*
X25693Y-22462D01*
X25648Y-22479D01*
X25609Y-22494D01*
X25581Y-22511D01*
X25560Y-22529D01*
X25546Y-22539D01*
X25542Y-22543D01*
X25511Y-22581D01*
X25490Y-22624D01*
X25472Y-22666D01*
X25461Y-22704D01*
X25454Y-22740D01*
X25451Y-22771D01*
Y-22789D01*
Y-22792D01*
Y-22796D01*
X26242D01*
X26231Y-22740D01*
X26224Y-22715D01*
X26217Y-22694D01*
X26210Y-22676D01*
X26203Y-22662D01*
X26196Y-22655D01*
Y-22652D01*
X26165Y-22606D01*
X26133Y-22571D01*
X26119Y-22560D01*
X26108Y-22550D01*
X26101Y-22546D01*
X26098Y-22543D01*
X26052Y-22511D01*
X26010Y-22490D01*
X25992Y-22483D01*
X25978Y-22476D01*
X25968Y-22472D01*
X25964D01*
X25908Y-22458D01*
X25859Y-22451D01*
X25838Y-22448D01*
D02*
G37*
G36*
X19394Y-25424D02*
X19344D01*
X19314Y-25430D01*
X19291Y-25436D01*
X19268Y-25442D01*
X19250Y-25447D01*
X19238Y-25453D01*
X19230Y-25456D01*
X19227Y-25459D01*
X19183Y-25486D01*
X19165Y-25503D01*
X19148Y-25518D01*
X19136Y-25529D01*
X19127Y-25541D01*
X19121Y-25547D01*
X19118Y-25550D01*
X19089Y-25594D01*
X19068Y-25635D01*
X19063Y-25653D01*
X19057Y-25667D01*
X19054Y-25676D01*
Y-25679D01*
X19039Y-25732D01*
X19036Y-25755D01*
X19033Y-25778D01*
X19030Y-25796D01*
Y-25814D01*
Y-25822D01*
Y-25825D01*
Y-25863D01*
X19033Y-25896D01*
X19036Y-25910D01*
Y-25922D01*
X19039Y-25928D01*
Y-25931D01*
X19054Y-25948D01*
X19074Y-25966D01*
X19112Y-25995D01*
X19130Y-26004D01*
X19145Y-26013D01*
X19156Y-26016D01*
X19159Y-26019D01*
X19191Y-26030D01*
X19224Y-26036D01*
X19253Y-26042D01*
X19285Y-26048D01*
X19312D01*
X19332Y-26051D01*
X19350D01*
X19396Y-26048D01*
X19417Y-26045D01*
X19437Y-26042D01*
X19452Y-26039D01*
X19464Y-26036D01*
X19473Y-26033D01*
X19476D01*
X19517Y-26016D01*
X19549Y-25995D01*
X19563Y-25986D01*
X19572Y-25980D01*
X19578Y-25978D01*
X19581Y-25975D01*
X19610Y-25942D01*
X19634Y-25910D01*
X19642Y-25899D01*
X19648Y-25887D01*
X19654Y-25881D01*
Y-25878D01*
X19669Y-25831D01*
X19678Y-25787D01*
Y-25770D01*
X19681Y-25755D01*
Y-25746D01*
Y-25743D01*
X19678Y-25691D01*
X19666Y-25644D01*
X19651Y-25603D01*
X19637Y-25570D01*
X19619Y-25544D01*
X19607Y-25524D01*
X19596Y-25512D01*
X19593Y-25509D01*
X19558Y-25480D01*
X19522Y-25459D01*
X19484Y-25445D01*
X19449Y-25436D01*
X19420Y-25427D01*
X19394Y-25424D01*
D02*
G37*
G36*
X20981Y-25433D02*
X20960D01*
X20925Y-25436D01*
X20893Y-25442D01*
X20881Y-25445D01*
X20873Y-25447D01*
X20867Y-25450D01*
X20864D01*
X20829Y-25462D01*
X20802Y-25477D01*
X20791Y-25486D01*
X20782Y-25488D01*
X20779Y-25494D01*
X20776D01*
X20750Y-25518D01*
X20732Y-25541D01*
X20717Y-25559D01*
X20714Y-25562D01*
Y-25565D01*
X20700Y-25597D01*
X20691Y-25629D01*
X20688Y-25641D01*
Y-25653D01*
Y-25658D01*
Y-25661D01*
X20691Y-25694D01*
X20697Y-25720D01*
X20703Y-25732D01*
X20706Y-25740D01*
X20709Y-25743D01*
Y-25746D01*
X20726Y-25775D01*
X20744Y-25802D01*
X20755Y-25819D01*
X20758Y-25822D01*
X20761Y-25825D01*
X20788Y-25852D01*
X20811Y-25875D01*
X20829Y-25890D01*
X20832Y-25893D01*
X20834Y-25896D01*
X20864Y-25916D01*
X20893Y-25934D01*
X20902Y-25940D01*
X20911Y-25945D01*
X20916Y-25948D01*
X20919D01*
X20960Y-25928D01*
X20996Y-25913D01*
X21010Y-25904D01*
X21022Y-25901D01*
X21028Y-25896D01*
X21031D01*
X21069Y-25875D01*
X21101Y-25858D01*
X21113Y-25849D01*
X21121Y-25843D01*
X21127Y-25837D01*
X21130D01*
X21160Y-25811D01*
X21183Y-25784D01*
X21198Y-25764D01*
X21203Y-25761D01*
Y-25758D01*
X21218Y-25723D01*
X21227Y-25688D01*
Y-25673D01*
X21230Y-25661D01*
Y-25653D01*
Y-25650D01*
X21227Y-25620D01*
X21221Y-25597D01*
X21215Y-25576D01*
X21212Y-25573D01*
Y-25570D01*
X21195Y-25541D01*
X21177Y-25521D01*
X21162Y-25506D01*
X21157Y-25500D01*
X21127Y-25480D01*
X21098Y-25465D01*
X21086Y-25459D01*
X21078Y-25456D01*
X21072Y-25453D01*
X21069D01*
X21031Y-25442D01*
X20996Y-25436D01*
X20981Y-25433D01*
D02*
G37*
G36*
X33842Y-29437D02*
X33818D01*
X33766Y-29440D01*
X33722Y-29448D01*
X33684Y-29463D01*
X33651Y-29475D01*
X33628Y-29490D01*
X33610Y-29504D01*
X33599Y-29513D01*
X33596Y-29516D01*
X33569Y-29548D01*
X33552Y-29583D01*
X33537Y-29618D01*
X33528Y-29651D01*
X33522Y-29680D01*
X33520Y-29706D01*
Y-29721D01*
Y-29724D01*
Y-29727D01*
X34178D01*
X34170Y-29680D01*
X34164Y-29659D01*
X34158Y-29642D01*
X34152Y-29627D01*
X34146Y-29615D01*
X34140Y-29610D01*
Y-29607D01*
X34114Y-29569D01*
X34088Y-29539D01*
X34076Y-29531D01*
X34067Y-29522D01*
X34061Y-29519D01*
X34058Y-29516D01*
X34020Y-29490D01*
X33985Y-29472D01*
X33971Y-29466D01*
X33959Y-29460D01*
X33950Y-29457D01*
X33947D01*
X33900Y-29446D01*
X33859Y-29440D01*
X33842Y-29437D01*
D02*
G37*
G36*
X29690Y-22469D02*
X29669D01*
X29613Y-22472D01*
X29560Y-22486D01*
X29518Y-22504D01*
X29480Y-22525D01*
X29451Y-22550D01*
X29427Y-22567D01*
X29413Y-22581D01*
X29409Y-22585D01*
X29374Y-22631D01*
X29349Y-22683D01*
X29328Y-22740D01*
X29318Y-22792D01*
X29311Y-22838D01*
X29304Y-22877D01*
Y-22891D01*
Y-22901D01*
Y-22908D01*
Y-22912D01*
Y-22965D01*
X29311Y-23010D01*
X29314Y-23052D01*
X29321Y-23091D01*
X29328Y-23119D01*
X29332Y-23144D01*
X29339Y-23158D01*
Y-23161D01*
X29353Y-23197D01*
X29367Y-23232D01*
X29381Y-23260D01*
X29395Y-23284D01*
X29409Y-23302D01*
X29420Y-23320D01*
X29427Y-23327D01*
X29430Y-23330D01*
X29476Y-23372D01*
X29518Y-23404D01*
X29536Y-23415D01*
X29550Y-23422D01*
X29560Y-23429D01*
X29564D01*
X29624Y-23446D01*
X29652Y-23450D01*
X29676Y-23453D01*
X29697Y-23457D01*
X29729D01*
X29792Y-23453D01*
X29824Y-23450D01*
X29849Y-23446D01*
X29873D01*
X29891Y-23443D01*
X29901Y-23439D01*
X29905D01*
X29933Y-23432D01*
X29961Y-23422D01*
X29982Y-23411D01*
X30000Y-23404D01*
X30014Y-23393D01*
X30024Y-23390D01*
X30028Y-23383D01*
X30031D01*
Y-22715D01*
X30014Y-22673D01*
X29996Y-22634D01*
X29972Y-22603D01*
X29951Y-22578D01*
X29929Y-22557D01*
X29912Y-22543D01*
X29898Y-22536D01*
X29894Y-22532D01*
X29856Y-22511D01*
X29817Y-22497D01*
X29778Y-22483D01*
X29743Y-22476D01*
X29715Y-22472D01*
X29690Y-22469D01*
D02*
G37*
G36*
X22477Y-25658D02*
Y-26250D01*
X22946D01*
X22477Y-25658D01*
D02*
G37*
G36*
X28982Y-25951D02*
X28958D01*
X28906Y-25954D01*
X28862Y-25963D01*
X28824Y-25978D01*
X28792Y-25989D01*
X28768Y-26004D01*
X28750Y-26019D01*
X28739Y-26027D01*
X28736Y-26030D01*
X28709Y-26062D01*
X28692Y-26098D01*
X28677Y-26133D01*
X28669Y-26165D01*
X28663Y-26194D01*
X28660Y-26221D01*
Y-26235D01*
Y-26238D01*
Y-26241D01*
X29319D01*
X29310Y-26194D01*
X29304Y-26174D01*
X29298Y-26156D01*
X29292Y-26142D01*
X29286Y-26130D01*
X29281Y-26124D01*
Y-26121D01*
X29254Y-26083D01*
X29228Y-26054D01*
X29216Y-26045D01*
X29207Y-26036D01*
X29202Y-26033D01*
X29199Y-26030D01*
X29161Y-26004D01*
X29125Y-25986D01*
X29111Y-25980D01*
X29099Y-25975D01*
X29090Y-25972D01*
X29087D01*
X29040Y-25960D01*
X28999Y-25954D01*
X28982Y-25951D01*
D02*
G37*
%LPD*%
D40*
X42950Y-41875D02*
D03*
X43000Y-9625D02*
D03*
D41*
X13208Y-16561D02*
D03*
X37922Y-42977D02*
D03*
X35382D02*
D03*
X37747Y-8890D02*
D03*
Y-11430D02*
D03*
X35207Y-8890D02*
D03*
Y-11430D02*
D03*
X32667Y-8890D02*
D03*
Y-11430D02*
D03*
X30127Y-8890D02*
D03*
Y-11430D02*
D03*
X27587Y-8890D02*
D03*
Y-11430D02*
D03*
X25047Y-8890D02*
D03*
Y-11430D02*
D03*
X22507Y-8890D02*
D03*
Y-11430D02*
D03*
X19967Y-8890D02*
D03*
Y-11430D02*
D03*
X14182Y-41503D02*
D03*
X21802D02*
D03*
D42*
X42113Y-32258D02*
D03*
X11481Y-32436D02*
D03*
M02*
