M48
;Layer_Color=9474304
;FILE_FORMAT=4:3
METRIC,LZ
;TYPE=PLATED
T1F00S00C0.600
T2F00S00C0.900
T3F00S00C3.200
%
T01
X0011481Y-0032436
X0042113Y-0032258
T02
X0035382Y-0042977
X0037922
X0021802Y-0041503
X0014182
X0013208Y-0016561
X0019967Y-001143
X0022507
X0025047
X0027587
X0030127
X0032667
Y-000889
X0030127
X0027587
X0025047
X0022507
X0019967
X0035207
X0037747
Y-001143
X0035207
T03
X004295Y-0041875
X0043Y-0009625
M30
